<ttFont>
          <CharString index="0">
            rmoveto
            160 141 47 30 101 hvcurveto
            54 16 44 13 39 4 82 635 rcurveline
            -427 hlineto
            -20 -159 rlineto
            232 hlineto
            -46 -358 rlineto
            -49 -110 -125 -24 -89 hhcurveto
            -250 -80 262 247 -4 hvcurveto
            306 -5 143 432 394 hhcurveto
            176 117 -50 -36 47 hvcurveto
            62 179 -38 11 rlineto
            21 -64 -113 35 -184 hhcurveto
            -418 -328 -32 callgsubr
            140 -333 354 hhcurveto
            return
          </CharString>
          <CharString index="1">
            rmoveto
            -228 -6 116 -222 283 -24 callgsubr
            -351 -237 -321 -401 -10 vhcurveto
            211 130 6 callsubr
            20 120 268 204 hhcurveto
            74 54 -28 -91 -197 -310 -121 -162 -7 hvcurveto
            return
          </CharString>
          <CharString index="2">
            rmoveto
            198 116 163 155 22 hvcurveto
            2 11 1 11 11 vvcurveto
            -132 hlineto
            -60 -23 -30 -144 -147 hhcurveto
            -126 -25 104 69 -15 hvcurveto
            -2 11 -1 11 -1 9 rrcurveto
            -135 hlineto
            -1 -6 0 -7 -6 vvcurveto
            -159 83 -173 216 vhcurveto
            return
          </CharString>
          <CharString index="3">
            rmoveto
            424 291 416 521 -9 hvcurveto
            343 -6 -160 282 -325 hhcurveto
            -412 -304 -406 -530 10 hvcurveto
            -343 6 160 -283 325 hhcurveto
            32 152 rmoveto
            -211 -99 159 353 -7 hvcurveto
            380 -7 192 361 283 hhcurveto
            211 100 -153 -353 6 hvcurveto
            -398 7 -191 -349 -284 hhcurveto
            return
          </CharString>
          <CharString index="4">
            289 -16 rmoveto
            121 hlineto
            -263 -180 -123 -63 -127 hhcurveto
            -70 -33 23 7 -16 hvcurveto
            -56 -162 rlineto
            -12 36 68 -15 38 hhcurveto
            287 153 205 142 114 hvcurveto
            90 112 85 131 74 140 135 255 96 267 19 256 4 47 0 45 -3 41 rrcurveto
            -192 hlineto
            -1 -44 -2 -45 -4 -45 -25 -256 -68 -269 -151 -242 -103 -183 rcurveline
            -40 303 -84 781 rlineto
            -216 hlineto
            109 -781 rlineto
            return
          </CharString>
          <CharString index="5">
            rmoveto
            -107 callgsubr
            endchar
          </CharString>
          <CharString index="6">
            rmoveto
            175 12 151 188 83 99 78 152 65 156 rlinecurve
            33 -232 58 -375 175 12 151 182 173 208 176 326 25 312 rlinecurve
            4 46 2 25 -3 45 rrcurveto
            -191 hlineto
            6 -46 -30 -173 -12 -67 -41 -232 -65 -111 -109 -175 -131 -182 rcurveline
            -12 205 -73 781 rlineto
            -214 hlineto
            31 -223 -46 -232 -96 -179 -102 -164 rlinecurve
            -134 -188 -10 205 -71 781 rlineto
            -218 hlineto
            114 -781 rlineto
            return
          </CharString>
          <CharString index="7">
            rmoveto
            -30 35 128 -29 131 hhcurveto
            229 165 105 206 168 -118 94 -103 84 hvcurveto
            -85 70 -68 52 105 vvcurveto
            100 89 41 104 132 74 -60 -15 11 vhcurveto
            38 183 rlineto
            15 -33 -96 24 -127 hhcurveto
            -203 -177 -108 -205 -162 93 -85 113 -96 hvcurveto
            100 -85 62 -46 -96 vvcurveto
            -112 -95 -30 -95 -130 -96 56 27 -41 vhcurveto
            return
          </CharString>
          <CharString index="8">
            hintmask 00000000
            hintmask 10101000
            -64 callgsubr
            hintmask 01101000
            -80 callgsubr
            hintmask 10101000
            -102 callgsubr
            hintmask 00010100
            return
          </CharString>
          <CharString index="9">
            -260 98 -172 212 vhcurveto
            35 152 -53 callgsubr
            119 336 286 56 33 callgsubr
            -86 -605 rlineto
            -105 -66 -124 -142 -141 hhcurveto
            return
          </CharString>
          <CharString index="10">
            185 hlineto
            126 1009 27 298 53 -232 455 -1075 rlineto
            193 hlineto
            193 -49 callsubr
            rlineto
            -188 hlineto
            -123 -1020 -19 -249 -63 207 -440 1062 rlineto
            -206 hlineto
            return
          </CharString>
          <CharString index="11">
            rmoveto
            96 36 169 132 62 111 -124 128 rcurveline
            -276 -342 rlineto
            return
          </CharString>
          <CharString index="12">
            rmoveto
            266 120 70 30 39 hvcurveto
            -30 166 rlineto
            -32 -39 -141 -76 -179 hhcurveto
            -229 -103 224 282 -5 hvcurveto
            286 -5 118 446 388 hhcurveto
            163 68 -48 -17 31 hvcurveto
            70 164 -54 18 rlineto
            24 -69 -72 25 -130 hhcurveto
            -406 -314 -32 callgsubr
            124 -333 374 hhcurveto
            return
          </CharString>
          <CharString index="13">
            rmoveto
            313 243 211 -234 94 68 -190 344 rlineto
            -178 hlineto
            -327 -344 rlineto
            endchar
          </CharString>
          <CharString index="14">
            -106 callsubr
            endchar
          </CharString>
          <CharString index="15">
            9 -48 -51 6 -44 hhcurveto
            -451 -197 -30 callgsubr
            -260 98 -172 212 hvcurveto
            35 152 -58 callgsubr
            33 callgsubr
            -82 -599 rlineto
            -105 -67 -133 -148 -144 hhcurveto
            return
          </CharString>
          <CharString index="16">
            864 10 callgsubr
            0 -20 268 263 -123 -33 callsubr
            -49 744 -67 18 callgsubr
            hintmask 1010000010000000
            1514 hmoveto
            -83 callsubr
            hintmask 0001000001000000
            -54 callgsubr
            -1659 -1388 rmoveto
            -93 callgsubr
            hintmask 1100011000000000
            -86 callsubr
            hintmask 1100101000000000
            -3 callsubr
            hintmask 1100011000000000
            -99 callgsubr
            hintmask 1100101000000000
            -45 callsubr
            6 callgsubr
            -86 callsubr
            hintmask 1100010100000000
            -3 callsubr
            hintmask 1100100100000000
            -79 callsubr
          </CharString>
          <CharString index="17">
            89 445 -104 callgsubr
            return
          </CharString>
          <CharString index="18">
            rmoveto
            178 158 86 182 167 -108 98 -168 -161 -186 -90 -185 -164 105 -94 182 hvcurveto
            5 106 rmoveto
            -88 -65 66 80 136 102 37 90 90 60 -59 -81 -147 -87 -32 -102 hvcurveto
            return
          </CharString>
          <CharString index="19">
            146 428 -105 callgsubr
            return
          </CharString>
          <CharString index="20">
            6 callsubr
            hlineto
            315 308 -82 87 -313 -244 -252 244 -87 -88 rlineto
            return
          </CharString>
          <CharString index="21">
            16 126 68 110 110 1 68 1 32 -15 24 -18 rrcurveto
            return
          </CharString>
          <CharString index="22">
            -107 callsubr
            endchar
          </CharString>
          <CharString index="23">
            1424 -16 150 -134 164 -143 -21 1369 161 -130 146 -102 86 0 19 callgsubr
            94 1168 6 callgsubr
            hintmask 0010100100000000
            110 hmoveto
            -11 callgsubr
            hintmask 1000100100000000
            -68 callsubr
            hintmask 1000100100000000
            -68 callgsubr
            1091 -163 -10 callsubr
            hintmask 0101000010000000
            780 1141 rlineto
            hintmask 0100010010000000
            -59 callsubr
            return
          </CharString>
          <CharString index="24">
            -25 callgsubr
            155 1140 rlineto
            -195 hlineto
            return
          </CharString>
          <CharString index="25">
            206 hintmask 11010100
            -78 callgsubr
            hintmask 00101000
            return
          </CharString>
          <CharString index="26">
            380 hmoveto
            188 hlineto
            76 590 593 940 rlineto
            -212 hlineto
            -412 -692 -38 -76 -32 76 -248 692 rlineto
            -212 hlineto
            373 -940 rlineto
            return
          </CharString>
          <CharString index="27">
            rmoveto
            -29 -130 -114 -132 -158 -51 35 -88 rcurveline
            201 34 171 84 86 272 31 95 91 689 72 671 rrcurveto
            -32 callsubr
            -51 -435 -51 -619 -86 -390 rrcurveto
            return
          </CharString>
          <CharString index="28">
            -99 callgsubr
            endchar
          </CharString>
          <CharString index="29">
            -53 callgsubr
            129 336 286 return
          </CharString>
          <CharString index="30">
            88 hmoveto
            -25 callgsubr
            98 718 rlineto
            136 105 167 121 112 -1 callgsubr
            -29 -186 -23 -172 rrcurveto
            196 hlineto
            25 169 30 188 -7 callsubr
            -165 -168 -110 -137 -115 vhcurveto
            40 250 return
          </CharString>
          <CharString index="31">
            -92 -32 140 -153 hhcurveto
            -104 -130 -83 -86 -43 hvcurveto
            return
          </CharString>
          <CharString index="32">
            254 -20 176 -174 173 812 187 -14 -20 34 -20 hstemhm
            306 206 hintmask 00000000
            hintmask 10001100
            370 56 rmoveto
            24 -46 88 -29 45 -1 rrcurveto
            177 66 71 71 75 hvcurveto
            -97 9 65 -43 80 hhcurveto
            139 99 117 21 15 hvcurveto
            hintmask 01010100
            -62 107 rlineto
            -47 -47 -34 -25 -38 hhcurveto
            -21 -19 31 52 7 hvcurveto
            116 902 rlineto
            -194 hlineto
            -108 -809 rlineto
            hintmask 10001100
            -71 -55 -112 -104 -103 hhcurveto
            -88 -83 43 147 16 hvcurveto
            -1 69 503 13 104 vhcurveto
            141 18 -70 61 -78 hhcurveto
            -152 -91 -104 -21 -14 hvcurveto
            hintmask 10100100
            64 -115 rlineto
            25 25 32 28 37 hhcurveto
            28 2 -59 -57 -8 hvcurveto
            -181 -1223 rlineto
            185 hlineto
            endchar
          </CharString>
          <CharString index="33">
            rmoveto
            72 109 46 175 131 vvcurveto
            97 -4 76 -24 57 vhcurveto
            -177 -46 -9 -32 rlineto
            20 -30 11 -86 -75 vvcurveto
            -107 -19 -111 -22 -93 vhcurveto
            6 -25 rlineto
            endchar
          </CharString>
          <CharString index="34">
            -2 111 17 -138 163 hhcurveto
            -63 callgsubr
            -48 -38 -32 -62 -74 hhcurveto
            return
          </CharString>
          <CharString index="35">
            83 4 -15 callsubr
            97 718 rlineto
            135 97 152 118 103 hhcurveto
            65 41 -15 -106 -67 -17 -124 -22 -149 hvcurveto
            -23 -156 -28 -182 -23 -172 rrcurveto
            196 hlineto
            25 169 29 184 22 158 15 102 12 91 7 68 rrcurveto
            111 96 127 88 89 -1 callgsubr
            -28 -182 -23 -172 rrcurveto
            196 hlineto
            25 169 29 184 -7 callsubr
            -142 -144 -91 -119 -107 vhcurveto
            149 -18 -73 61 -127 hhcurveto
            -149 -150 -101 -129 -107 hvcurveto
            return
          </CharString>
          <CharString index="36">
            -48 52 rlineto
            -723 hlineto
            -22 -156 rlineto
            539 hlineto
            -160 -169 -579 -756 rlineto
            return
          </CharString>
          <CharString index="37">
            65 -183 36 -78 28 -44 227 -2 rcurveline
            -40 53 -51 118 -103 248 -26 81 -62 127 -51 52 232 71 128 199 -5 244 rrcurveto
            225 -5 -161 129 -304 hhcurveto
            return
          </CharString>
          <CharString index="38">
            549 0 151 -151 161 1229 156 hstemhm
            156 194 988 197 hintmask 00000000
            hintmask 10111000
            58 hmoveto
            555 hlineto
            40 139 rlineto
            -140 84 -163 233 298 vvcurveto
            438 231 198 299 204 254 -141 -362 -334 -203 -294 -228 -120 vhcurveto
            20 -139 rlineto
            586 hlineto
            hintmask 01111000
            13 161 rlineto
            -371 hlineto
            224 163 156 337 246 vvcurveto
            379 -281 260 -355 -418 -325 -241 -546 vhcurveto
            hintmask 10111000
            -254 151 -250 139 -104 vhcurveto
            -369 hlineto
            endchar
          </CharString>
          <CharString index="39">
            -84 callgsubr
            hintmask 1000001100000000
            -48 callsubr
            return
          </CharString>
          <CharString index="40">
            rmoveto
            -66 54 -46 65 95 62 60 100 59 -34 53 -85 -95 -62 -77 -83 vhcurveto
            return
          </CharString>
          <CharString index="41">
            rmoveto
            509 hlineto
            5 149 rlineto
            -510 hlineto
            return
          </CharString>
          <CharString index="42">
            1696 rmoveto
            80 69 -23 callsubr
            hintmask 00100010
            -37 callgsubr
            hintmask 00010010
            -66 52 -53 63 vhcurveto
            hintmask 00010100
            -28 callgsubr
            hintmask 00100100
            63 2 -47 53 -77 hhcurveto
            -65 -75 -67 -77 -3 hvcurveto
            hintmask 00010100
            -64 -3 53 -55 63 hhcurveto
            return
          </CharString>
          <CharString index="43">
            rmoveto
            -176 95 -134 183 252 160 221 219 172 -79 123 -198 -239 -174 -213 -212 vhcurveto
            161 2 rmoveto
            118 73 183 151 86 49 -70 -111 -114 -64 -195 -149 -93 -53 77 112 vhcurveto
            return
          </CharString>
          <CharString index="44">
            21 -53 callsubr
            return
          </CharString>
          <CharString index="45">
            -103 callgsubr
            endchar
          </CharString>
          <CharString index="46">
            1627 -89 callgsubr
            return
          </CharString>
          <CharString index="47">
            110 hmoveto
            -97 callsubr
            return
          </CharString>
          <CharString index="48">
            -25 86 rlineto
            -898 hlineto
            -22 -168 690 14 -134 -159 -779 -1128 rlineto
            return
          </CharString>
          <CharString index="49">
            777 hlineto
            15 156 rlineto
            -598 hlineto
            144 150 rlineto
            return
          </CharString>
          <CharString index="50">
            63 -20 171 -130 -51 callgsubr
            return
          </CharString>
          <CharString index="51">
            -16 152 -115 -21 1013 143 return
          </CharString>
          <CharString index="52">
            122 116 5 41 rlineto
            -63 53 -29 76 78 vvcurveto
            160 101 122 69 35 vhcurveto
            2 22 -75 111 rlineto
            -124 -60 -190 -148 -283 vvcurveto
            -161 100 -127 82 -35 vhcurveto
            return
          </CharString>
          <CharString index="53">
            rmoveto
            103 38 212 167 58 116 -135 119 rcurveline
            -312 -375 rlineto
            -321 -65 rmoveto
            84 37 216 169 51 116 -133 118 rcurveline
            -312 -375 rlineto
            endchar
          </CharString>
          <CharString index="54">
            -21 -39 callsubr
            return
          </CharString>
          <CharString index="55">
            83 -16 rmoveto
            113 33 rlineto
            -17 65 90 -16 71 -42 callgsubr
            return
          </CharString>
          <CharString index="56">
            rmoveto
            79 37 171 210 47 105 -145 118 rcurveline
            -247 -416 rlineto
            -331 -54 rmoveto
            94 54 139 179 55 120 -145 117 rcurveline
            -237 -416 rlineto
            return
          </CharString>
          <CharString index="57">
            hlineto
            175 1384 420 -11 21 157 rlineto
            -1044 hlineto
            -22 -157 427 11 return
          </CharString>
          <CharString index="58">
            1530 return
          </CharString>
          <CharString index="59">
            -93 -127 -15 -1 -90 hvcurveto
            -108 hlineto
            25 -1367 rmoveto
            return
          </CharString>
          <CharString index="60">
            230 -16 155 431 159 657 160 return
          </CharString>
          <CharString index="61">
            203 hlineto
            46 343 rlineto
            264 hlineto
            20 175 -262 -11 36 268 -202 -23 -36 -253 -333 -14 79 92 491 609 -133 103 rlineto
            -48 hlineto
            return
          </CharString>
          <CharString index="62">
            562 -984 rmoveto
            -93 callgsubr
            return
          </CharString>
          <CharString index="63">
            -16 -194 rlineto
            174 hlineto
            221 1638 rlineto
            -195 hlineto
            -68 -497 rlineto
            return
          </CharString>
          <CharString index="64">
            -16 147 878 147 return
          </CharString>
          <CharString index="65">
            -11 callsubr
            268 263 hstemhm
            124 18 callgsubr
            hintmask 11010000
            124 hmoveto
            -83 callsubr
            hintmask 00101000
            -77 callgsubr
            endchar
          </CharString>
          <CharString index="66">
            -15 callsubr
            223 1634 rlineto
            -195 hlineto
            return
          </CharString>
          <CharString index="67">
            -25 callgsubr
            208 1638 rlineto
            -195 hlineto
            106 -1004 rmoveto
            355 -630 rlineto
            227 hlineto
            -364 597 84 42 122 92 94 120 rlinecurve
            70 89 48 86 10 110 rrcurveto
            -186 hlineto
            -44 -120 -60 -82 -77 -84 -86 -94 -98 -72 -95 -53 1 -1 rcurveline
            endchar
          </CharString>
          <CharString index="68">
            -49 callsubr
            -20 return
          </CharString>
          <CharString index="69">
            155 21 11 callgsubr
            983 -20 return
          </CharString>
          <CharString index="70">
            253 -16 161 1385 -20 return
          </CharString>
          <CharString index="71">
            961 hlineto
            28 170 -752 -12 124 145 rlineto
            return
          </CharString>
          <CharString index="72">
            141 53 118 104 4 147 rrcurveto
            118 4 -115 98 -194 hhcurveto
            -144 -131 -45 -79 -114 hvcurveto
            46 -112 84 56 93 36 92 2 rlinecurve
            108 3 49 -36 -79 vvcurveto
            -153 -172 -63 -141 -28 vhcurveto
            -21 -145 161 35 rlineto
            return
          </CharString>
          <CharString index="73">
            hhcurveto
            451 197 427 313 260 -98 172 -212 return
          </CharString>
          <CharString index="74">
            153 -5 -21 4 callsubr
            return
          </CharString>
          <CharString index="75">
            -198 hlineto
            return
          </CharString>
          <CharString index="76">
            636 rmoveto
            185 hlineto
            135 988 -69 21 -51 -41 -225 -103 -140 -35 rlinecurve
            6 -123 261 52 rlineto
            return
          </CharString>
          <CharString index="77">
            vvcurveto
            -149 -77 -31 -82 -31 -23 5 9 -17 vhcurveto
            return
          </CharString>
          <CharString index="78">
            389 -16 rmoveto
            157 131 106 104 77 hvcurveto
            return
          </CharString>
          <CharString index="79">
            307 291 -21 callgsubr
            return
          </CharString>
          <CharString index="80">
            1730 -21 callgsubr
            return
          </CharString>
          <CharString index="81">
            -88 callgsubr
            endchar
          </CharString>
          <CharString index="82">
            -10 callsubr
            hintmask 11001000
            780 1141 rlineto
            hintmask 10101000
            -16 callgsubr
          </CharString>
          <CharString index="83">
            hmoveto
            -22 callsubr
          </CharString>
          <CharString index="84">
            70 77 3 hvcurveto
            return
          </CharString>
          <CharString index="85">
            -86 callgsubr
            endchar
          </CharString>
          <CharString index="86">
            rmoveto
            -586 378 -70 -112 414 -351 -510 -356 38 -115 692 396 rlineto
            return
          </CharString>
          <CharString index="87">
            -78 -10 49 -47 71 hhcurveto
            79 77 58 89 12 hvcurveto
            68 9 -34 57 -95 hhcurveto
            -75 -72 -64 -83 -11 hvcurveto
            return
          </CharString>
          <CharString index="88">
            69 83 rmoveto
            59 -18 37 -85 -88 vvcurveto
            -125 -74 -109 -100 -49 vhcurveto
            -3 -21 73 -89 rlineto
            183 66 129 172 222 vvcurveto
            102 -38 146 -153 58 vhcurveto
            -106 -128 rlineto
            return
          </CharString>
          <CharString index="89">
            -21 984 156 return
          </CharString>
          <CharString index="90">
            -69 callgsubr
            endchar
          </CharString>
          <CharString index="91">
            136 335 -24 -383 -50 -1020 rlineto
            201 hlineto
            36 -49 callsubr
            rlineto
            -287 hlineto
            -427 -1060 -50 -169 -15 169 -161 1060 rlineto
            -254 hlineto
            endchar
          </CharString>
          <CharString index="92">
            rmoveto
            -25 callgsubr
            return
          </CharString>
          <CharString index="93">
            11 -11 -30 2 -20 hhcurveto
            -175 -125 -138 -81 -50 hvcurveto
            return
          </CharString>
          <CharString index="94">
            9 53 hhcurveto
            200 91 -91 -168 -3 hvcurveto
            -5 -294 -120 -166 -282 -3 return
          </CharString>
          <CharString index="95">
            176 79 139 100 86 hhcurveto
            49 29 -4 -10 20 hvcurveto
            return
          </CharString>
          <CharString index="96">
            21 -51 callgsubr
            return
          </CharString>
          <CharString index="97">
            rmoveto
            -36 callsubr
            return
          </CharString>
          <CharString index="98">
            21 -21 64 123 490 122 -54 123 490 122 50 -20 hstemhm
            201 161 359 170 146 161 359 170 return
          </CharString>
          <CharString index="99">
            -119 -75 -16 -115 hhcurveto
            -102 hlineto
            107 -718 rmoveto
            return
          </CharString>
          <CharString index="100">
            22 158 rrcurveto
            23 159 17 131 61 -35 callgsubr
            return
          </CharString>
          <CharString index="101">
            -256 -362 1959 hstem
            -93 1035 vstem
            79 -362 rmoveto
            863 1959 rlineto
            -174 hlineto
            -861 -1959 rlineto
            endchar
          </CharString>
          <CharString index="102">
            -63 callsubr
            hstem
            return
          </CharString>
          <CharString index="103">
            hstemhm
            146 203 return
          </CharString>
          <CharString index="104">
            50 159 rlineto
            return
          </CharString>
          <CharString index="105">
            -18 callsubr
            388 -33 callsubr
            return
          </CharString>
          <CharString index="106">
            -205 -16 149 876 147 return
          </CharString>
          <CharString index="107">
            -66 -16 155 1256 151 return
          </CharString>
          <CharString index="108">
            606 rmoveto
            -49 77 132 -23 71 hhcurveto
            234 264 108 242 8 hvcurveto
            3 93 -46 148 -207 -1 rrcurveto
            return
          </CharString>
          <CharString index="109">
            156 693 158 hstem
            218 855 vstem
            218 693 rmoveto
            837 hlineto
            18 158 rlineto
            -837 hlineto
            endchar
          </CharString>
          <CharString index="110">
            -145 0 156 828 156 -52 52 return
          </CharString>
          <CharString index="111">
            hstemhm
            142 744 return
          </CharString>
          <CharString index="112">
            267 -16 150 -113 -21 1400 146 -16 -20 return
          </CharString>
          <CharString index="113">
            rmoveto
            176 return
          </CharString>
          <CharString index="114">
            1729 -66 callsubr
            return
          </CharString>
          <CharString index="115">
            663 11 -21 1540 -20 return
          </CharString>
          <CharString index="116">
            74 132 93 75 54 return
          </CharString>
          <CharString index="117">
            265 152 267 return
          </CharString>
          <CharString index="118">
            hstemhm
            79 202 return
          </CharString>
          <CharString index="119">
            107 -3 74 -61 -6 -96 -5 -162 -183 -50 -133 -1 -65 -1 -105 17 -71 35 rrcurveto
            return
          </CharString>
          <CharString index="120">
            rmoveto
            16 callgsubr
          </CharString>
          <CharString index="121">
            rmoveto
            140 hlineto
            164 721 rlineto
            -227 hlineto
            return
          </CharString>
          <CharString index="122">
            183 62 125 136 -4 218 rrcurveto
            165 -3 -98 163 -349 hhcurveto
            return
          </CharString>
          <CharString index="123">
            19 203 37 callsubr
          </CharString>
          <CharString index="124">
            290 -63 callsubr
            return
          </CharString>
          <CharString index="125">
            139 342 142 return
          </CharString>
          <CharString index="126">
            702 -179 267 return
          </CharString>
          <CharString index="127">
            653 0 157 259 151 135 155 520 153 return
          </CharString>
          <CharString index="128">
            -531 -514 136 1518 -20 return
          </CharString>
          <CharString index="129">
            59 -492 -21 497 143 -107 -21 1005 152 -16 -20 return
          </CharString>
          <CharString index="130">
            -256 -186 1966 hstem
            354 173 vstem
            354 return
          </CharString>
          <CharString index="131">
            -151 -129 -114 -96 -32 hvcurveto
            return
          </CharString>
          <CharString index="132">
            -21 hstemhm
            126 1762 return
          </CharString>
          <CharString index="133">
            267 153 267 return
          </CharString>
          <CharString index="134">
            167 1363 -20 return
          </CharString>
          <CharString index="135">
            hstemhm
            110 960 return
          </CharString>
          <CharString index="136">
            -53 -1 -80 7 -35 8 rrcurveto
            endchar
          </CharString>
          <CharString index="137">
            -102 -93 -15 -1 -93 hvcurveto
            -101 hlineto
            114 -666 rmoveto
            return
          </CharString>
          <CharString index="138">
            -109 -88 -16 -98 hhcurveto
            -116 hlineto
            92 -840 rmoveto
            return
          </CharString>
          <CharString index="139">
            hstemhm
            183 198 return
          </CharString>
          <CharString index="140">
            232 263 hstemhm
            return
          </CharString>
          <CharString index="141">
            -324 21 -21 949 207 -13 -20 20 13 return
          </CharString>
          <CharString index="142">
            -64 -3 53 -55 63 hhcurveto
            endchar
          </CharString>
          <CharString index="143">
            -21 1378 151 return
          </CharString>
          <CharString index="144">
            -6 callgsubr
            endchar
          </CharString>
          <CharString index="145">
            hstemhm
            81 202 return
          </CharString>
          <CharString index="146">
            15 callgsubr
            hintmask 00000000
            return
          </CharString>
          <CharString index="147">
            300 21 -21 694 150 686 -20 return
          </CharString>
          <CharString index="148">
            -53 21 -21 702 156 519 153 return
          </CharString>
          <CharString index="149">
            88 21 -21 46 callsubr
            return
          </CharString>
          <CharString index="150">
            110 1232 return
          </CharString>
          <CharString index="151">
            129 395 hstemhm
            return
          </CharString>
          <CharString index="152">
            -76 1251 return
          </CharString>
          <CharString index="153">
            975 181 return
          </CharString>
          <CharString index="154">
            -435 148 return
          </CharString>
          <CharString index="155">
            127 391 return
          </CharString>
        <CharString name=".notdef">
          762 0 219 hstem
          228 229 960 227 vstem
          228 hmoveto
          1416 1416 -1416 hlineto
          230 -1053 rmoveto
          358 342 -359 363 123 125 357 -368 352 366 128 -124 -363 -358 363 -368 -122 -122 -362 368 -347 -368 rlineto
          endchar
        </CharString>
        <CharString name="A">
          -38 callsubr
          hstem
          45 callsubr
          vstem
          -97 callgsubr
          endchar
        </CharString>
        <CharString name="AE">
          20 callsubr
          -140 140 -122 122 -100 100 hstemhm
          -128 1823 hintmask 00000000
          hintmask 11110001
          85 hmoveto
          -22 callgsubr
          hintmask 11100011
          -14 -100 rlineto
          hintmask 11100101
          29 callgsubr
          hintmask 11101001
          35 callgsubr
        </CharString>
        <CharString name="AEacute">
          20 callsubr
          -122 122 -100 100 149 -21 hstemhm
          -128 1823 -709 400 hintmask 0000001010000000
          1059 -66 callgsubr
          6 callgsubr
          -901 -1658 rmoveto
          -22 callgsubr
          hintmask 1111000100000000
          -14 -100 rlineto
          hintmask 1110010100000000
          29 callgsubr
          hintmask 1110100100000000
          35 callgsubr
        </CharString>
        <CharString name="Aacute">
          -38 callsubr
          169 -21 44 callgsubr
          -426 400 hintmask 11101000
          -97 callgsubr
          hintmask 00010100
          -63 1046 -96 callsubr
          endchar
        </CharString>
        <CharString name="Abreve">
          -38 callsubr
          119 147 44 callgsubr
          -670 140 hintmask 11101000
          -97 callgsubr
          hintmask 00010100
          -81 1082 -105 callsubr
          endchar
        </CharString>
        <CharString name="Acircumflex">
          -38 callsubr
          173 -21 44 callgsubr
          -714 695 hintmask 11101000
          -97 callgsubr
          hintmask 00010100
          -347 1038 -94 callsubr
        </CharString>
        <CharString name="Adieresis">
          -38 callsubr
          186 1 callgsubr
          -76 1251 -697 10 callsubr
          hintmask 11100100
          -97 callgsubr
          hintmask 00000000
          125 1149 rmoveto
          80 69 -23 callsubr
          hintmask 00001001
          -37 callgsubr
          hintmask 00010001
          -66 52 -53 63 vhcurveto
          hintmask 00001001
          -28 callgsubr
          hintmask 00001010
          63 2 -47 53 -77 hhcurveto
          -65 -75 -67 -77 -3 hvcurveto
          hintmask 00010010
          35 callsubr
        </CharString>
        <CharString name="Agrave">
          -38 callsubr
          169 -21 44 callgsubr
          -684 400 hintmask 11101000
          -97 callgsubr
          hintmask 00010100
          -67 1046 -17 callsubr
        </CharString>
        <CharString name="Amacron">
          -38 callsubr
          219 149 44 callgsubr
          -653 514 hintmask 11101000
          -97 callgsubr
          hintmask 00010100
          -363 1182 -66 callsubr
          endchar
        </CharString>
        <CharString name="Aogonek">
          155 47 callsubr
          308 11 callgsubr
          983 -20 hstemhm
          670 259 -194 154 -126 409 hintmask 00000000
          hintmask 11110100
          -76 hmoveto
          211 hlineto
          182 396 rlineto
          594 hlineto
          66 -396 rlineto
          3 hlineto
          -77 -47 -168 -96 -138 vvcurveto
          -63 56 -91 137 vhcurveto
          hintmask 11110010
          116 87 58 36 42 hvcurveto
          -51 99 rlineto
          hintmask 11111000
          21 callgsubr
          39 hlineto
          hintmask 11110100
          -286 -49 callsubr
          rlineto
          hintmask 11111000
          -219 hlineto
          -284 -983 rmoveto
          hintmask 11110010
          315 683 56 122 13 -116 115 -689 rlineto
          endchar
        </CharString>
        <CharString name="Aring">
          155 21 11 callgsubr
          920 106 -43 -20 382 108 44 callgsubr
          -681 18 callsubr
          hintmask 11010100
          -97 callgsubr
          hintmask 00101011
          -104 920 -89 callsubr
          endchar
        </CharString>
        <CharString name="Atilde">
          -38 callsubr
          158 27 callgsubr
          -76 1251 -745 783 hintmask 11100100
          -97 callgsubr
          hintmask 00000000
          -368 1170 -47 callgsubr
          hintmask 00001010
          -73 callsubr
          hintmask 00010010
          -76 callsubr
          endchar
        </CharString>
        <CharString name="B">
          20 callgsubr
          hstemhm
          923 211 -190 198 hintmask 00000000
          hintmask 01110100
          110 hmoveto
          92 hlineto
          71 107 -14 77 hhcurveto
          hintmask 10110100
          13 callgsubr
          hintmask 10110010
          15 callsubr
          hintmask 10101100
          30 callsubr
          hintmask 10110010
          5 callgsubr
          hintmask 10101100
          -53 -66 -2 3 -51 hvcurveto
          hintmask 10110100
          -13 callgsubr
        </CharString>
        <CharString name="C">
          0 callgsubr
          hstem
          107 202 vstem
          610 -16 -95 callsubr
          endchar
        </CharString>
        <CharString name="CR">
          -1110 endchar
        </CharString>
        <CharString name="Cacute">
          0 callgsubr
          133 -21 hstemhm
          107 202 452 400 hintmask 11010000
          610 -16 -95 callsubr
          hintmask 00101000
          224 1609 -96 callsubr
          endchar
        </CharString>
        <CharString name="Ccaron">
          0 callgsubr
          81 386 hstemhm
          107 202 164 734 hintmask 11010000
          610 -16 -95 callsubr
          hintmask 00101000
          106 1643 -89 callgsubr
          endchar
        </CharString>
        <CharString name="Ccedilla">
          31 -462 165 285 154 1238 166 hstem
          107 202 252 171 vstem
          331 -283 rmoveto
          -57 callgsubr
          61 -9 51 -14 39 hvcurveto
          197 14 95 56 34 26 -30 166 rcurveline
          -32 -39 -141 -76 -179 hhcurveto
          -229 -103 224 282 -5 hvcurveto
          286 -5 118 446 388 hhcurveto
          163 68 -48 -17 31 hvcurveto
          70 164 -54 18 rlineto
          24 -69 -72 25 -130 hhcurveto
          -406 -314 -371 -548 10 hvcurveto
          5 -296 113 -317 336 -28 rrcurveto
          1 -33 -1 -41 -29 -30 callsubr
          endchar
        </CharString>
        <CharString name="Ccircumflex">
          0 callgsubr
          137 -21 hstemhm
          107 202 164 695 hintmask 11010000
          610 -16 -95 callsubr
          hintmask 00101000
          -60 1601 -94 callsubr
        </CharString>
        <CharString name="Cdotaccent">
          0 callgsubr
          171 -21 hstemhm
          107 202 388 265 hintmask 00101000
          810 1696 -96 callgsubr
          hintmask 11010000
          -200 -1712 -95 callsubr
          endchar
        </CharString>
        <CharString name="D">
          5 callsubr
          hstemhm
          1093 205 hintmask 00000000
          hintmask 01101000
          110 hmoveto
          -11 callgsubr
          hintmask 10101000
          -84 callgsubr
          hintmask 10011000
          -48 callsubr
          hintmask 10101000
          154 1218 -85 callgsubr
          hintmask 10011000
          -83 -3 -92 12 -61 20 rrcurveto
          endchar
        </CharString>
        <CharString name="Dcaron">
          5 callsubr
          117 386 hstemhm
          458 734 -99 205 hintmask 00001100
          701 -61 callsubr
          hintmask 00000000
          -348 -1925 rmoveto
          -11 callgsubr
          hintmask 01100010
          -84 callgsubr
          hintmask 10100010
          -48 callsubr
          hintmask 10010010
          154 1218 -85 callgsubr
          hintmask 10100010
          -83 -3 -92 12 -61 20 rrcurveto
          endchar
        </CharString>
        <CharString name="Dcroat">
          -76 callgsubr
        </CharString>
        <CharString name="Delta">
          -26 callgsubr
        </CharString>
        <CharString name="E">
          28 0 -49 callgsubr
          hstem
          110 960 vstem
          110 hmoveto
          902 -95 callgsubr
          -767 hlineto
          endchar
        </CharString>
        <CharString name="Eacute">
          28 0 -49 callgsubr
          149 37 callgsubr
          -413 400 hintmask 00010100
          730 -66 callgsubr
          hintmask 11101000
          -547 -1658 rmoveto
          902 -95 callgsubr
          -767 hlineto
          endchar
        </CharString>
        <CharString name="Ebreve">
          28 0 -49 callgsubr
          99 147 28 callsubr
          -657 140 hintmask 00010100
          712 -81 callgsubr
          hintmask 11101000
          -602 -1629 rmoveto
          902 -95 callgsubr
          -767 hlineto
          endchar
        </CharString>
        <CharString name="Ecaron">
          28 0 -49 callgsubr
          97 386 28 callsubr
          -701 734 hintmask 00010100
          612 -61 callsubr
          hintmask 11101000
          -259 -1925 rmoveto
          902 -95 callgsubr
          -767 hlineto
          endchar
        </CharString>
        <CharString name="Ecircumflex">
          28 0 -49 callgsubr
          153 37 callgsubr
          -701 695 hintmask 11101000
          110 hmoveto
          902 -95 callgsubr
          -767 hlineto
          hintmask 00010100
          143 55 -94 callsubr
        </CharString>
        <CharString name="Edieresis">
          28 0 -49 callgsubr
          166 263 -242 37 callgsubr
          -684 10 callsubr
          hintmask 00000000
          hintmask 00001001
          918 1696 rmoveto
          80 69 -23 callsubr
          hintmask 00010001
          -37 callgsubr
          hintmask 00001001
          -66 52 -53 63 vhcurveto
          hintmask 00001010
          -28 callgsubr
          hintmask 00010010
          63 2 -47 53 -77 hhcurveto
          -65 -75 -67 -77 -3 hvcurveto
          hintmask 00001010
          -64 -3 53 -55 63 hhcurveto
          hintmask 11100100
          -389 -1696 rmoveto
          902 -95 callgsubr
          -767 hlineto
          endchar
        </CharString>
        <CharString name="Edotaccent">
          28 0 -49 callgsubr
          187 37 callgsubr
          -477 265 hintmask 00010100
          706 1696 -96 callgsubr
          hintmask 11101000
          -596 -1696 rmoveto
          902 -95 callgsubr
          -767 hlineto
          endchar
        </CharString>
        <CharString name="Egrave">
          28 0 -49 callgsubr
          149 37 callgsubr
          -671 400 hintmask 00010100
          726 1593 -69 callgsubr
          hintmask 11101000
          -616 -1593 rmoveto
          902 -95 callgsubr
          -767 hlineto
          endchar
        </CharString>
        <CharString name="Emacron">
          28 0 -49 callgsubr
          199 149 28 callsubr
          -640 514 hintmask 00010100
          430 7 callsubr
          hintmask 11101000
          -324 -1878 rmoveto
          902 -95 callgsubr
          -767 hlineto
          endchar
        </CharString>
        <CharString name="Eng">
          406 -5 callsubr
          43 callsubr
          vstem
          110 hmoveto
          185 hlineto
          126 1009 27 298 53 -232 445 -1051 -47 -108 -101 -100 -133 -43 rlinecurve
          35 -88 201 34 161 87 83 194 rlinecurve
          4 hlineto
          193 -49 callsubr
          rlineto
          -188 hlineto
          -123 -1020 -19 -249 -63 207 -440 1062 rlineto
          -206 hlineto
          endchar
        </CharString>
        <CharString name="Eogonek">
          28 47 callsubr
          287 -49 callgsubr
          hstem
          561 194 193 118 vstem
          110 hmoveto
          696 hlineto
          -65 callgsubr
          9 callsubr
          hvcurveto
          50 -95 callgsubr
          -767 hlineto
          endchar
        </CharString>
        <CharString name="Eth">
          -76 callgsubr
        </CharString>
        <CharString name="Euro">
          279 -16 147 423 141 199 140 364 148 hstemhm
          25 1219 -1020 212 hintmask 00000000
          hintmask 11111000
          25 554 rmoveto
          202 hlineto
          -287 24 135 -283 307 hhcurveto
          206 172 47 80 71 hvcurveto
          -56 136 rlineto
          -62 -89 -96 -54 -179 hhcurveto
          -193 -82 167 256 -11 hvcurveto
          527 hlineto
          19 141 rlineto
          hintmask 11110100
          -546 hlineto
          2 71 7 66 10 62 rrcurveto
          553 hlineto
          19 140 rlineto
          -542 hlineto
          229 66 130 135 195 hhcurveto
          169 108 -37 -28 27 hvcurveto
          64 159 rlineto
          23 -72 -86 31 -156 hhcurveto
          -299 -242 -194 -318 -106 hvcurveto
          -193 hlineto
          -20 -140 rlineto
          176 hlineto
          -12 -63 -8 -67 -2 -69 rrcurveto
          -179 hlineto
          endchar
        </CharString>
        <CharString name="F">
          41 callsubr
          hstem
          110 983 vstem
          110 hmoveto
          -2 callgsubr
        </CharString>
        <CharString name="G">
          -47 callsubr
          hstem
          109 201 vstem
          608 -16 -85 callsubr
        </CharString>
        <CharString name="Gbreve">
          -47 callsubr
          83 147 22 callgsubr
          239 140 hintmask 00010100
          848 -81 callgsubr
          hintmask 11101000
          -240 -1645 -85 callsubr
        </CharString>
        <CharString name="Gcaron">
          -47 callsubr
          81 386 22 callgsubr
          195 734 hintmask 11101000
          608 -16 -107 callsubr
          hintmask 00010100
          140 1643 -89 callgsubr
          endchar
        </CharString>
        <CharString name="Gcircumflex">
          -47 callsubr
          137 -21 22 callgsubr
          195 695 hintmask 11101000
          608 -16 -107 callsubr
          hintmask 00010100
          -26 1601 -94 callsubr
        </CharString>
        <CharString name="Gcommaaccent">
          230 -7 callgsubr
          494 155 431 159 657 160 22 callgsubr
          277 191 hintmask 11000010
          521 -171 -100 callgsubr
          hintmask 00111100
          -62 54 -85 callsubr
        </CharString>
        <CharString name="Gdotaccent">
          -47 callsubr
          171 -21 22 callgsubr
          419 265 hintmask 00010100
          842 1696 -96 callgsubr
          hintmask 11101000
          -234 -1712 -85 callsubr
        </CharString>
        <CharString name="Gtilde">
          -47 callsubr
          122 27 callgsubr
          109 201 164 783 hintmask 11100100
          608 -16 -107 callsubr
          hintmask 00000000
          -47 1733 -47 callgsubr
          hintmask 00001010
          -73 callsubr
          hintmask 00010010
          -76 callsubr
          endchar
        </CharString>
        <CharString name="H">
          40 callsubr
          hstem
          110 1242 vstem
          -17 callgsubr
          endchar
        </CharString>
        <CharString name="Hbar">
          300 21 -21 592 150 256 150 382 -20 hstem
          52 1463 vstem
          26 callgsubr
          74 592 rlineto
          653 hlineto
          -74 -592 rlineto
          7 callgsubr
          126 998 rlineto
          216 hlineto
          14 150 rlineto
          -211 hlineto
          48 382 -14 callgsubr
          -48 -382 rlineto
          -653 hlineto
          48 382 -14 callgsubr
          -48 -382 rlineto
          -189 hlineto
          -14 -150 rlineto
          184 hlineto
          165 -256 rmoveto
          33 256 rlineto
          653 hlineto
          -33 -256 rlineto
          endchar
        </CharString>
        <CharString name="Hcircumflex">
          40 callsubr
          173 -21 hstemhm
          110 1242 -851 695 hintmask 11101000
          -17 callgsubr
          hintmask 00010100
          275 55 -94 callsubr
        </CharString>
        <CharString name="I">
          -530 -5 callsubr
          48 callsubr
          vstem
          -72 callgsubr
          endchar
        </CharString>
        <CharString name="I.uc">
          -530 -63 callsubr
          207 -21 hstemhm
          48 callsubr
          -167 265 hintmask 11010000
          -72 callgsubr
          hintmask 00101000
          144 166 -44 callgsubr
        </CharString>
        <CharString name="IJ">
          52 -63 callsubr
          hstemhm
          48 callsubr
          -108 687 hintmask 11100000
          -72 callgsubr
          hintmask 01010000
          391 -1444 -80 callsubr
          endchar
        </CharString>
        <CharString name="IJ_acutecomb">
          52 -63 callsubr
          167 -21 23 -21 hstemhm
          127 970 -130 400 hintmask 11011000
          461 -66 callgsubr
          22 -1885 rmoveto
          35 -88 201 34 171 84 86 272 rlinecurve
          31 95 91 689 72 671 rrcurveto
          -32 callsubr
          -51 -435 -51 -619 -86 -390 -29 -130 -114 -132 -158 -51 rrcurveto
          -283 227 rmoveto
          7 callgsubr
          193 -49 callsubr
          -14 callgsubr
          hintmask 00100100
          720 61 -96 callsubr
          endchar
        </CharString>
        <CharString name="Iacute">
          -530 48 callgsubr
          48 callsubr
          -130 400 hintmask 11010000
          -72 callgsubr
          hintmask 00101000
          141 63 -96 callsubr
          endchar
        </CharString>
        <CharString name="Ibreve">
          -530 -63 callsubr
          119 147 hstemhm
          48 callsubr
          -374 140 hintmask 11010000
          -72 callgsubr
          hintmask 00101000
          123 99 -105 callsubr
          endchar
        </CharString>
        <CharString name="Icircumflex">
          -530 -63 callsubr
          173 -21 hstemhm
          100 695 -668 391 hintmask 11001000
          -72 callgsubr
          hintmask 00110000
          -143 55 -94 callsubr
        </CharString>
        <CharString name="Idieresis">
          -530 -63 callsubr
          186 1 callgsubr
          117 265 -255 391 16 267 hintmask 11000100
          -72 callgsubr
          hintmask 00000000
          329 166 rmoveto
          80 69 -23 callsubr
          hintmask 00010010
          -37 callgsubr
          hintmask 00100010
          -66 52 -53 63 vhcurveto
          hintmask 00010010
          -28 callgsubr
          hintmask 00011000
          63 2 -47 53 -77 hhcurveto
          -65 -75 -67 -77 -3 hvcurveto
          hintmask 00101000
          35 callsubr
        </CharString>
        <CharString name="Idotaccent">
          -530 -63 callsubr
          207 -21 hstemhm
          48 callsubr
          -194 265 hintmask 11010000
          -72 callgsubr
          hintmask 00101000
          117 166 -44 callgsubr
        </CharString>
        <CharString name="Igrave">
          -530 48 callgsubr
          48 callsubr
          -388 400 hintmask 11010000
          -72 callgsubr
          hintmask 00101000
          137 63 -17 callsubr
        </CharString>
        <CharString name="Imacron">
          -530 -63 callsubr
          219 149 hstemhm
          48 callsubr
          -357 514 hintmask 11010000
          -72 callgsubr
          hintmask 00101000
          -159 199 -66 callsubr
          endchar
        </CharString>
        <CharString name="Iogonek">
          -530 47 callsubr
          308 -53 callsubr
          hstem
          -118 194 vstem
          127 hmoveto
          -65 callgsubr
          9 callsubr
          hvcurveto
          42 hlineto
          193 -49 callsubr
          -14 callgsubr
          endchar
        </CharString>
        <CharString name="Itilde">
          -530 -63 callsubr
          158 27 callgsubr
          69 783 -725 391 hintmask 11000100
          -72 callgsubr
          hintmask 00000000
          -164 187 -47 callgsubr
          hintmask 00011000
          -73 callsubr
          hintmask 00101000
          -76 callsubr
          endchar
        </CharString>
        <CharString name="J">
          -528 -39 callsubr
          hstem
          -170 687 vstem
          131 86 -80 callsubr
          endchar
        </CharString>
        <CharString name="Jcircumflex">
          -528 -39 callsubr
          173 -21 hstemhm
          -170 687 -423 695 hintmask 10100000
          131 86 -80 callsubr
          hintmask 01010000
          40 1499 -94 callsubr
        </CharString>
        <CharString name="K">
          135 -5 callsubr
          110 1197 vstem
          110 hmoveto
          -41 callgsubr
        </CharString>
        <CharString name="Kcommaaccent">
          135 -537 -21 71 -21 529 -53 callsubr
          hstemhm
          110 1197 -762 191 hintmask 11000100
          479 -12 callgsubr
          -518 68 rmoveto
          -41 callgsubr
        </CharString>
        <CharString name="L">
          -132 0 27 callsubr
          hstem
          110 789 vstem
          110 hmoveto
          16 callgsubr
        </CharString>
        <CharString name="Lacute">
          -132 0 27 callsubr
          171 -21 hstemhm
          110 789 -514 400 hintmask 00101000
          458 1595 -96 callsubr
          hintmask 11010000
          -275 -1660 13 callsubr
        </CharString>
        <CharString name="Lcaron">
          -132 0 167 838 645 -120 -20 hstemhm
          110 789 -77 183 hintmask 10110000
          110 hmoveto
          -59 callgsubr
          hintmask 01001000
          584 -525 -74 callsubr
        </CharString>
        <CharString name="Lcommaaccent">
          -132 -537 -21 71 -21 508 27 callsubr
          hstemhm
          110 789 -455 191 hintmask 11000100
          378 -12 callgsubr
          -417 68 13 callsubr
        </CharString>
        <CharString name="Ldot">
          -14 0 167 605 -21 779 -20 hstemhm
          110 789 -136 276 hintmask 10110000
          110 hmoveto
          -59 callgsubr
          hintmask 01001000
          460 -667 -67 callsubr
          endchar
        </CharString>
        <CharString name="Lslash">
          -132 0 27 callsubr
          hstem
          -51 950 vstem
          110 hmoveto
          767 hlineto
          22 170 -570 -5 61 488 419 177 -35 127 -365 -158 92 731 -14 callgsubr
          -104 -821 -250 -108 36 -118 196 82 rlineto
          endchar
        </CharString>
        <CharString name="M">
          32 callgsubr
          hstemhm
          48 1574 -175 157 hintmask 00000000
          hintmask 01011000
          48 hmoveto
          200 hlineto
          238 1033 rlineto
          hintmask 10101000
          17 callgsubr
          hintmask 01100100
          -16 callsubr
        </CharString>
        <CharString name="N">
          17 callsubr
          hstem
          43 callsubr
          vstem
          -60 callsubr
          endchar
        </CharString>
        <CharString name="NULL">
          -1110 endchar
        </CharString>
        <CharString name="Nacute">
          290 48 callgsubr
          43 callsubr
          -532 400 hintmask 00101000
          883 -66 callgsubr
          hintmask 11010000
          -700 -1658 rmoveto
          -97 callsubr
          endchar
        </CharString>
        <CharString name="Ncaron">
          17 callsubr
          117 386 hstemhm
          43 callsubr
          -820 734 hintmask 00101000
          765 -61 callsubr
          hintmask 11010000
          -412 -1925 rmoveto
          -97 callsubr
          endchar
        </CharString>
        <CharString name="Ncommaaccent">
          290 -7 callgsubr
          531 -53 callsubr
          hstemhm
          43 callsubr
          -774 191 hintmask 11000100
          502 -171 -10 callgsubr
          -541 70 rmoveto
          -97 callsubr
          endchar
        </CharString>
        <CharString name="Ntilde">
          17 callsubr
          158 27 callgsubr
          43 callsubr
          -851 783 hintmask 00000000
          hintmask 00010100
          578 1717 -47 callgsubr
          hintmask 00100100
          -73 callsubr
          hintmask 00010100
          -76 callsubr
          hintmask 11001000
          -381 -1801 rmoveto
          -97 callsubr
          endchar
        </CharString>
        <CharString name="O">
          -55 callgsubr
          hstem
          108 206 785 206 vstem
          -78 callgsubr
          endchar
        </CharString>
        <CharString name="OE">
          996 -16 152 -136 -49 callgsubr
          -141 157 -3 callgsubr
          hintmask 00000000
          hintmask 10110100
          599 -16 rmoveto
          214 175 106 172 120 hvcurveto
          hintmask 01110100
          -33 -262 -5 callgsubr
          -767 hlineto
          -37 -291 rlineto
          hintmask 01101100
          183 -67 -135 124 -215 hhcurveto
          -412 -304 -406 -530 10 hvcurveto
          hintmask 10110100
          -343 6 160 -283 325 hhcurveto
          32 152 rmoveto
          -211 -99 159 353 -7 hvcurveto
          hintmask 01101100
          380 -7 192 361 283 hhcurveto
          211 100 -153 -353 6 hvcurveto
          hintmask 10110100
          -398 7 -191 -349 -284 hhcurveto
          endchar
        </CharString>
        <CharString name="Oacute">
          -55 callgsubr
          133 36 callgsubr
          468 400 -83 206 hintmask 00101000
          855 -66 callgsubr
          hintmask 11010100
          -183 -1674 -104 callsubr
          endchar
        </CharString>
        <CharString name="Obreve">
          -55 callgsubr
          83 147 -3 callgsubr
          224 140 421 206 hintmask 00101000
          837 -81 callgsubr
          hintmask 11010100
          -238 -1645 -104 callsubr
          endchar
        </CharString>
        <CharString name="Ocircumflex">
          -55 callgsubr
          137 36 callgsubr
          180 695 -90 -82 callsubr
          -60 1449 -94 callsubr
        </CharString>
        <CharString name="Odieresis">
          -55 callgsubr
          150 263 -242 36 callgsubr
          197 10 callsubr
          -96 206 hintmask 00000000
          hintmask 00010010
          1043 -65 callsubr
          hintmask 11001001
          -25 -1712 -104 callsubr
          endchar
        </CharString>
        <CharString name="Ograve">
          -55 callgsubr
          133 36 callgsubr
          210 400 175 206 hintmask 00101000
          851 1593 -69 callgsubr
          hintmask 11010100
          -252 -1609 -104 callsubr
          endchar
        </CharString>
        <CharString name="Ohungarumlaut">
          -55 callgsubr
          14 440 -3 callgsubr
          235 862 -312 -82 callsubr
          407 1424 -54 callsubr
        </CharString>
        <CharString name="Omacron">
          -55 callgsubr
          183 149 -3 callgsubr
          241 514 30 206 hintmask 00101000
          555 7 callsubr
          hintmask 11010100
          40 -1894 -104 callsubr
          endchar
        </CharString>
        <CharString name="Omega">
          -69 callsubr
        </CharString>
        <CharString name="Oslash">
          -55 callgsubr
          hstem
          108 206 785 206 vstem
          -70 callgsubr
          endchar
        </CharString>
        <CharString name="Oslashacute">
          -55 callgsubr
          133 36 callgsubr
          435 400 -50 206 hintmask 11010100
          -70 callgsubr
          hintmask 00101000
          413 1352 -96 callsubr
          endchar
        </CharString>
        <CharString name="Otilde">
          -55 callgsubr
          122 27 callgsubr
          108 206 149 783 -147 206 hintmask 00000000
          hintmask 00010100
          550 1717 -47 callgsubr
          hintmask 00100100
          -73 callsubr
          hintmask 00010100
          -76 callsubr
          hintmask 11001010
          136 -1817 -104 callsubr
          endchar
        </CharString>
        <CharString name="P">
          31 callgsubr
          hstemhm
          970 201 hintmask 00000000
          hintmask 11101000
          26 callgsubr
          67 530 -15 callgsubr
          124 -289 hhcurveto
          hintmask 11011000
          31 callsubr
          hintmask 11101000
          86 687 rlineto
          12 58 90 -13 callsubr
          rrcurveto
          hintmask 11011000
          29 callsubr
        </CharString>
        <CharString name="Q">
          268 -360 184 172 140 -130 -21 32 -21 1393 157 -3 callgsubr
          260 145 380 206 hintmask 00000000
          hintmask 10101111
          577 -15 rmoveto
          -233 -29 169 -112 191 hhcurveto
          112 148 24 34 49 hvcurveto
          154 vlineto
          -20 -58 -92 -8 -43 hhcurveto
          hintmask 10011111
          -141 -156 9 163 -8 hvcurveto
          358 70 236 385 -8 470 rrcurveto
          343 -6 -160 282 -325 hhcurveto
          -412 -304 -406 -530 10 hvcurveto
          hintmask 10101111
          6 -336 153 -277 310 -12 rrcurveto
          hintmask 11001111
          54 151 rmoveto
          -211 -99 159 353 -7 hvcurveto
          380 -7 192 361 283 hhcurveto
          211 100 -153 -353 6 hvcurveto
          -398 7 -191 -349 -284 hhcurveto
          endchar
        </CharString>
        <CharString name="R">
          160 20 -8 callgsubr
          hstemhm
          967 215 hintmask 00000000
          hintmask 01110100
          108 hmoveto
          -36 callgsubr
          hintmask 10110100
          -70 callsubr
          hintmask 01101100
          -8 callsubr
          hintmask 01110100
          -48 callgsubr
          hintmask 01101100
          25 callgsubr
          endchar
        </CharString>
        <CharString name="Racute">
          160 20 -8 callgsubr
          169 -21 hstemhm
          710 400 -143 215 hintmask 00000000
          hintmask 01110001
          108 hmoveto
          -36 callgsubr
          hintmask 10110001
          -70 callsubr
          hintmask 01101001
          -8 callsubr
          hintmask 01110001
          -48 callgsubr
          hintmask 01101001
          25 callgsubr
          hintmask 00000110
          375 781 -96 callsubr
          endchar
        </CharString>
        <CharString name="Rcaron">
          160 20 -8 callgsubr
          117 386 hstemhm
          422 734 -189 215 hintmask 00000110
          665 -61 callsubr
          hintmask 00000000
          -314 -1925 rmoveto
          -36 callgsubr
          hintmask 01110001
          -70 callsubr
          hintmask 10110001
          -8 callsubr
          hintmask 01101001
          -48 callgsubr
          hintmask 01110001
          25 callgsubr
          endchar
        </CharString>
        <CharString name="Rcommaaccent">
          160 -7 callgsubr
          530 -8 callgsubr
          hstemhm
          557 191 219 215 hintmask 1100000100000000
          491 -171 -100 callgsubr
          6 callgsubr
          -532 70 rmoveto
          -36 callgsubr
          hintmask 0001110010000000
          -70 callsubr
          hintmask 0010110010000000
          -8 callsubr
          hintmask 0001101010000000
          -48 callgsubr
          hintmask 0001110010000000
          25 callgsubr
          endchar
        </CharString>
        <CharString name="S">
          0 callsubr
          hstem
          183 198 334 206 vstem
          29 75 -62 callsubr
        </CharString>
        <CharString name="Sacute">
          0 callsubr
          133 -21 32 callsubr
          251 400 -317 206 hintmask 11010100
          29 75 -103 callgsubr
          hintmask 00101000
          621 1358 -96 callsubr
          endchar
        </CharString>
        <CharString name="Scaron">
          0 callsubr
          81 386 32 callsubr
          -37 734 -363 206 hintmask 11010100
          29 75 -103 callgsubr
          hintmask 00101000
          503 1392 -89 callgsubr
          endchar
        </CharString>
        <CharString name="Scircumflex">
          0 callsubr
          137 -21 32 callsubr
          -37 695 -324 206 hintmask 11010100
          29 75 -103 callgsubr
          hintmask 00101000
          337 1350 -94 callsubr
        </CharString>
        <CharString name="T">
          12 21 36 callsubr
          hstem
          129 1066 vstem
          381 hmoveto
          198 -50 callsubr
          rlineto
          endchar
        </CharString>
        <CharString name="Tbar">
          12 21 -21 722 130 526 151 hstem
          129 1066 vstem
          381 hmoveto
          7 callgsubr
          91 722 rlineto
          272 hlineto
          16 130 rlineto
          -271 hlineto
          67 532 420 -11 21 157 rlineto
          -1044 hlineto
          -22 -157 427 11 -67 -532 rlineto
          -270 hlineto
          -16 -130 rlineto
          269 hlineto
          endchar
        </CharString>
        <CharString name="Tcaron">
          12 21 36 callsubr
          98 386 hstemhm
          129 1066 -820 734 hintmask 00101000
          618 -61 callsubr
          hintmask 11010000
          6 -1925 rmoveto
          198 -50 callsubr
          rlineto
          endchar
        </CharString>
        <CharString name="Thorn">
          100 21 -21 270 156 722 149 233 -20 hstem
          938 201 vstem
          26 callgsubr
          35 280 -15 callgsubr
          125 -289 hhcurveto
          -78 -67 -9 -5 -68 hvcurveto
          32 247 -14 callgsubr
          60 -1090 rmoveto
          87 687 rlineto
          12 58 89 -13 callsubr
          29 callsubr
        </CharString>
        <CharString name="U">
          -37 callsubr
          hstem
          146 203 vstem
          -88 callsubr
          endchar
        </CharString>
        <CharString name="Uacute">
          -37 callsubr
          169 -21 -4 callsubr
          420 400 hintmask 00101000
          842 -66 callgsubr
          hintmask 11010000
          -623 -1230 -105 callgsubr
          endchar
        </CharString>
        <CharString name="Ubreve">
          -37 callsubr
          119 147 -4 callsubr
          176 140 hintmask 00101000
          824 -81 callgsubr
          hintmask 11010000
          -678 -1201 -105 callgsubr
          endchar
        </CharString>
        <CharString name="Ucircumflex">
          -37 callsubr
          173 -21 -4 callsubr
          132 695 hintmask 11010000
          -88 callsubr
          hintmask 00101000
          412 1157 -94 callsubr
        </CharString>
        <CharString name="Udieresis">
          -37 callsubr
          186 1 callgsubr
          146 203 149 10 callsubr
          hintmask 00000000
          hintmask 00010010
          1030 -65 callsubr
          hintmask 11001000
          -465 -1268 -105 callgsubr
          endchar
        </CharString>
        <CharString name="Ugrave">
          -37 callsubr
          169 -21 -4 callsubr
          162 400 hintmask 00101000
          838 1593 -69 callgsubr
          hintmask 11010000
          -692 -1165 -105 callgsubr
          endchar
        </CharString>
        <CharString name="Uhungarumlaut">
          -37 callsubr
          50 440 -4 callsubr
          187 862 hintmask 11010000
          -88 callsubr
          hintmask 00101000
          879 1132 -54 callsubr
        </CharString>
        <CharString name="Umacron">
          -37 callsubr
          219 149 -4 callsubr
          193 514 hintmask 00101000
          542 7 callsubr
          hintmask 11010000
          -400 -1450 -105 callgsubr
          endchar
        </CharString>
        <CharString name="Uogonek">
          253 47 callsubr
          271 161 1385 -20 -4 callsubr
          -72 378 -194 14 hintmask 00000000
          hintmask 11110100
          146 428 rmoveto
          -276 5 153 -168 298 hhcurveto
          29 28 2 2 27 hvcurveto
          -82 -51 -143 -100 -118 vvcurveto
          -63 56 -91 137 116 87 58 36 42 vhcurveto
          -51 99 rlineto
          hintmask 11101000
          -39 callgsubr
          48 99 107 87 87 hvcurveto
          199 73 123 184 45 349 114 903 rcurveline
          -193 hlineto
          -112 -886 rlineto
          -358 -45 -128 -141 -214 hhcurveto
          hintmask 11110100
          -175 -102 96 195 -4 hvcurveto
          -1 57 5 62 8 73 114 902 rcurveline
          hintmask 11101000
          -32 callsubr
          hintmask 11110100
          -118 -937 -6 -59 -8 -54 1 -52 rlinecurve
          endchar
        </CharString>
        <CharString name="Uring">
          253 -16 161 1322 106 -43 -20 382 108 -4 callsubr
          165 18 callsubr
          hintmask 10101000
          -88 callsubr
          hintmask 01010110
          655 1039 -89 callsubr
          endchar
        </CharString>
        <CharString name="Utilde">
          -37 callsubr
          158 27 callgsubr
          146 203 101 783 hintmask 00000000
          hintmask 00010100
          537 1717 -47 callgsubr
          hintmask 00100100
          -73 callsubr
          hintmask 00010100
          -76 callsubr
          hintmask 11001000
          -304 -1373 -105 callgsubr
          endchar
        </CharString>
        <CharString name="V">
          59 -5 callsubr
          128 1158 vstem
          380 hmoveto
          209 hlineto
          697 -49 callsubr
          rlineto
          -210 hlineto
          -476 -1101 -86 -222 -25 222 -163 1101 -14 callgsubr
          endchar
        </CharString>
        <CharString name="W">
          8 callsubr
          hstem
          126 1762 vstem
          358 -10 -91 callgsubr
          endchar
        </CharString>
        <CharString name="Wacute">
          8 callsubr
          169 25 callsubr
          -888 400 hintmask 00101000
          1073 -66 callgsubr
          hintmask 11010000
          -642 -1668 -91 callgsubr
          endchar
        </CharString>
        <CharString name="Wcircumflex">
          8 callsubr
          173 25 callsubr
          -1176 695 hintmask 11010000
          358 -10 -91 callgsubr
          hintmask 00101000
          663 55 -94 callsubr
        </CharString>
        <CharString name="Wdieresis">
          8 callsubr
          186 263 -242 25 callsubr
          -1159 10 callsubr
          hintmask 00000000
          hintmask 00010010
          1261 -65 callsubr
          hintmask 11001000
          -484 -1706 -91 callgsubr
          endchar
        </CharString>
        <CharString name="Wgrave">
          8 callsubr
          169 25 callsubr
          -1146 400 hintmask 00101000
          1069 1593 -69 callgsubr
          hintmask 11010000
          -711 -1603 -91 callgsubr
          endchar
        </CharString>
        <CharString name="X">
          47 -5 callsubr
          -59 1300 vstem
          -59 hmoveto
          240 hlineto
          394 620 248 -620 rlineto
          228 hlineto
          -347 753 537 777 rlineto
          -224 hlineto
          -389 -598 -229 598 rlineto
          -218 hlineto
          318 -737 rlineto
          endchar
        </CharString>
        <CharString name="Y">
          -27 -5 callsubr
          83 1154 vstem
          -81 callsubr
          endchar
        </CharString>
        <CharString name="Yacute">
          23 callgsubr
          -598 400 hintmask 11010000
          -81 callsubr
          hintmask 00101000
          256 1003 -96 callsubr
          endchar
        </CharString>
        <CharString name="Ycircumflex">
          42 callgsubr
          173 -21 hstemhm
          83 1154 -886 695 hintmask 11010000
          -81 callsubr
          hintmask 00101000
          -28 995 -94 callsubr
        </CharString>
        <CharString name="Ydieresis">
          42 callgsubr
          186 1 callgsubr
          83 1154 -869 10 callsubr
          hintmask 11001000
          -81 callsubr
          hintmask 00000000
          444 1106 rmoveto
          80 69 -23 callsubr
          hintmask 00010010
          -37 callgsubr
          hintmask 00100010
          -66 52 -53 63 vhcurveto
          hintmask 00010010
          -28 callgsubr
          hintmask 00010100
          63 2 -47 53 -77 hhcurveto
          -65 -75 -67 -77 -3 hvcurveto
          hintmask 00100100
          35 callsubr
        </CharString>
        <CharString name="Ygrave">
          23 callgsubr
          -856 400 hintmask 11010000
          -81 callsubr
          hintmask 00101000
          252 1003 -17 callsubr
        </CharString>
        <CharString name="Z">
          3 callgsubr
          hstemhm
          15 1168 hintmask 00000000
          hintmask 11010000
          42 hmoveto
          -36 callsubr
          hintmask 10110000
          780 1141 rlineto
          hintmask 11010000
          -16 callgsubr
        </CharString>
        <CharString name="Zacute">
          3 callgsubr
          149 -21 hstemhm
          15 1168 -478 400 hintmask 00000000
          hintmask 11001000
          42 hmoveto
          -36 callsubr
          hintmask 10101000
          780 1141 rlineto
          hintmask 11001000
          -59 callsubr
          hintmask 00010100
          763 1504 -96 callsubr
          endchar
        </CharString>
        <CharString name="Zcaron">
          3 callgsubr
          97 386 hstemhm
          15 1168 -766 734 hintmask 00010100
          660 -61 callsubr
          hintmask 00000000
          -375 -1925 -25 callsubr
        </CharString>
        <CharString name="Zdotaccent">
          3 callgsubr
          187 -21 hstemhm
          15 1168 -542 265 hintmask 00010100
          754 1696 -96 callgsubr
          hintmask 00000000
          -712 -1696 -25 callsubr
        </CharString>
        <CharString name="a">
          35 -56 callsubr
          38 callsubr
          hintmask 00000000
          hintmask 10110000
          391 38 callgsubr
          124 104 102 74 hvcurveto
          hintmask 01110000
          47 callgsubr
          172 hlineto
          156 1156 -113 -43 callgsubr
          -187 -30 callgsubr
          hvcurveto
          hintmask 10110000
          -98 callsubr
          endchar
        </CharString>
        <CharString name="aacute">
          35 -56 callsubr
          105 472 38 callsubr
          334 459 -98 callgsubr
          274 1125 -34 callgsubr
        </CharString>
        <CharString name="abreve">
          35 -56 callsubr
          144 147 38 callsubr
          127 140 -98 callgsubr
          283 1164 -105 callsubr
          endchar
        </CharString>
        <CharString name="acircumflex">
          35 -56 callsubr
          83 451 38 callsubr
          99 695 -98 callgsubr
          33 1103 -26 callsubr
        </CharString>
        <CharString name="acute">
          -551 1261 472 hstem
          69 459 vstem
          152 1261 -34 callgsubr
        </CharString>
        <CharString name="acute.cap">
          -584 1679 -21 hstem
          78 400 vstem
          151 -66 callgsubr
          endchar
        </CharString>
        <CharString name="adieresis">
          35 -56 callsubr
          38 callsubr
          hintmask 00000000
          hintmask 10110000
          391 38 callgsubr
          124 104 102 74 hvcurveto
          hintmask 01110000
          47 callgsubr
          172 hlineto
          156 1156 -113 -43 callgsubr
          -187 -30 callgsubr
          hvcurveto
          hintmask 10110000
          -98 callsubr
          hintmask 00000000
          496 1252 -31 callgsubr
        </CharString>
        <CharString name="ae">
          523 -56 callgsubr
          -143 143 38 callsubr
          401 206 477 196 hintmask 00000000
          hintmask 11011110
          371 -16 -73 callgsubr
          hintmask 11101110
          176 20 120 268 204 hhcurveto
          74 54 -28 -91 hvcurveto
          hintmask 11011110
          -197 -310 -121 -162 -7 vhcurveto
          endchar
        </CharString>
        <CharString name="aeacute">
          523 -56 callgsubr
          -143 143 105 472 38 callsubr
          401 206 -69 459 87 196 hintmask 0000100100000000
          904 1261 -92 callgsubr
          6 callgsubr
          -450 -1348 -73 callgsubr
          hintmask 1101011010000000
          176 20 120 268 204 hhcurveto
          74 54 -28 -91 hvcurveto
          hintmask 1110011010000000
          -197 -310 -121 -162 -7 vhcurveto
          endchar
        </CharString>
        <CharString name="afii61352">
          1387 0 158 412 143 676 143 hstem
          1576 187 488 188 vstem
          1580 1058 rmoveto
          -297 -30 146 -191 259 hhcurveto
          195 251 139 339 34 hvcurveto
          297 30 -145 187 -259 hhcurveto
          -196 -252 -135 -339 -33 hvcurveto
          -1418 -1058 rmoveto
          -97 callsubr
          1412 -462 rmoveto
          23 229 102 90 149 2 151 2 77 -143 -22 -212 -22 -227 -100 -94 -151 -2 -151 -2 -78 147 22 210 rrcurveto
          -249 -1068 rmoveto
          773 hlineto
          12 158 rlineto
          -773 hlineto
          endchar
        </CharString>
        <CharString name="agrave">
          35 -56 callsubr
          105 472 38 callsubr
          56 441 -98 callgsubr
          269 1125 -71 callgsubr
        </CharString>
        <CharString name="amacron">
          35 -56 callsubr
          239 149 38 callsubr
          189 514 -98 callgsubr
          46 1259 -66 callsubr
          endchar
        </CharString>
        <CharString name="ampersand">
          424 -20 134 -131 140 561 146 583 133 hstemhm
          94 204 37 180 404 186 4 181 hintmask 00000000
          hintmask 01111110
          94 368 rmoveto
          -283 272 -102 275 133 116 24 45 95 vhcurveto
          hintmask 10111110
          -48 74 101 -24 76 hhcurveto
          38 60 3 11 51 hvcurveto
          21 120 rlineto
          -26 hlineto
          -96 -3 -76 12 -71 38 rrcurveto
          hintmask 01111101
          99 102 54 144 179 vvcurveto
          40 -5 32 -7 26 vhcurveto
          152 hlineto
          9 145 -287 1 rlineto
          -88 -49 -17 -18 -18 hvcurveto
          -10 -134 21 10 36 7 43 4 rlinecurve
          12 -37 10 -47 -56 vvcurveto
          -118 -37 -96 -64 -69 vhcurveto
          -140 129 -118 165 -106 184 rrcurveto
          hintmask 01111110
          219 119 242 123 258 vvcurveto
          136 -123 173 -233 -241 -173 -177 -241 -110 41 -135 48 -105 vhcurveto
          -176 -99 -154 -116 -195 vvcurveto
          482 492 rmoveto
          -31 64 -30 93 117 vvcurveto
          145 84 134 143 115 62 -82 -115 -163 -163 -97 -180 -96 vhcurveto
          -278 -488 rmoveto
          120 83 84 113 73 vhcurveto
          101 -169 84 -144 183 -176 rrcurveto
          -24 -60 -70 -13 -75 hhcurveto
          -171 -188 58 191 hvcurveto
          endchar
        </CharString>
        <CharString name="aogonek">
          64 47 callsubr
          271 152 -115 -21 1013 143 hstemhm
          97 202 202 194 hintmask 00000000
          hintmask 11011100
          407 38 callgsubr
          124 104 102 74 hvcurveto
          47 callgsubr
          -65 callgsubr
          hvcurveto
          hintmask 10111100
          9 callsubr
          vhcurveto
          16 hlineto
          156 1156 -113 -43 callgsubr
          -187 -30 callgsubr
          hvcurveto
          hintmask 11011100
          -98 callsubr
          endchar
        </CharString>
        <CharString name="approxequal">
          -47 285 166 6 166 108 166 6 166 hstemhm
          55 927 -877 927 hintmask 00000000
          hintmask 01001000
          126 340 8 callgsubr
          hintmask 10001000
          -23 callgsubr
          hintmask 01001000
          24 callsubr
          hintmask 00000000
          121 373 8 callgsubr
          hintmask 00010100
          -23 callgsubr
          hintmask 00100100
          24 callsubr
          endchar
        </CharString>
        <CharString name="aring">
          35 -56 callsubr
          97 106 319 108 38 callsubr
          159 18 callsubr
          hintmask 00000000
          hintmask 10100100
          391 38 callgsubr
          124 104 102 74 hvcurveto
          hintmask 01100100
          47 callgsubr
          172 hlineto
          156 1156 -113 -43 callgsubr
          -187 -30 callgsubr
          hvcurveto
          hintmask 10100100
          -98 callsubr
          hintmask 00011011
          303 1117 -89 callsubr
          endchar
        </CharString>
        <CharString name="asciicircum">
          254 -39 callsubr
          hstem
          176 965 vstem
          176 510 rmoveto
          175 hlineto
          417 828 202 -828 rlineto
          171 hlineto
          -257 1020 rlineto
          -197 hlineto
          endchar
        </CharString>
        <CharString name="asciitilde">
          27 720 166 6 166 hstemhm
          132 927 hintmask 00000000
          hintmask 01100000
          203 775 8 callgsubr
          hintmask 10100000
          -23 callgsubr
          hintmask 01100000
          24 callsubr
          endchar
        </CharString>
        <CharString name="asterisk">
          256 1149 -20 21 -20 hstemhm
          231 1000 hintmask 00000000
          hintmask 01100000
          582 648 rmoveto
          197 -1 -1 292 -16 145 101 -98 219 -170 115 166 rlineto
          hintmask 10100000
          -255 120 -132 47 142 48 279 121 -77 167 -257 -171 -120 -95 43 142 59 292 rlineto
          -192 hlineto
          -2 -292 13 -142 -100 95 -218 170 -115 -166 rlineto
          hintmask 01100000
          255 -121 132 -47 -142 -48 -279 -120 77 -167 257 171 118 98 -42 -145 rlineto
          endchar
        </CharString>
        <CharString name="at">
          858 -440 139 308 153 -149 174 782 125 322 131 hstemhm
          121 152 260 179 455 177 372 153 6 callgsubr
          hintmask 1101111110000000
          121 374 rmoveto
          -517 328 -297 449 171 163 46 70 92 vhcurveto
          -33 97 rlineto
          -33 -68 -192 -41 -118 hhcurveto
          -335 -305 191 508 504 333 512 541 305 264 -116 -439 hvcurveto
          hintmask 1011111110000000
          -323 -190 -351 -168 -10 -4 10 18 41 -5 43 10 103 vhcurveto
          19 201 51 314 39 153 -165 -30 rcurveline
          39 -56 -109 15 -55 hhcurveto
          -370 -164 -367 -291 -6 hvcurveto
          hintmask 1101111110000000
          -297 -6 149 -130 135 hhcurveto
          148 130 151 213 90 hvcurveto
          -6 -59 -6 -40 -47 vvcurveto
          hintmask 1011111110000000
          -119 0 -95 90 267 345 319 559 400 -260 256 -424 vhcurveto
          hintmask 1101111110000000
          -590 -474 -447 -724 hvcurveto
          591 73 rmoveto
          230 125 290 228 55 92 -24 -51 33 vhcurveto
          -240 -30 -236 -492 -137 hhcurveto
          -101 -29 130 157 hvcurveto
          endchar
        </CharString>
        <CharString name="atilde">
          35 -56 callsubr
          192 -18 callgsubr
          81 202 40 783 hintmask 00000000
          hintmask 10100010
          391 38 callgsubr
          124 104 102 74 hvcurveto
          hintmask 01100010
          47 callgsubr
          172 hlineto
          156 1156 -113 -43 callgsubr
          -187 -30 callgsubr
          hvcurveto
          hintmask 10100010
          -98 callsubr
          hintmask 00000000
          -16 1261 -61 callgsubr
        </CharString>
        <CharString name="b">
          53 -16 143 877 152 hstem
          868 202 vstem
          -52 callsubr
          endchar
        </CharString>
        <CharString name="backslash">
          -256 -362 1959 hstem
          26 750 vstem
          776 -362 rmoveto
          -577 1959 rlineto
          -173 hlineto
          576 -1959 rlineto
          endchar
        </CharString>
        <CharString name="bar">
          23 callsubr
          -186 rmoveto
          173 1966 -173 hlineto
          endchar
        </CharString>
        <CharString name="braceleft">
          -86 34 callgsubr
          287 431 hintmask 00000000
          hintmask 10110000
          287 -47 rmoveto
          -110 -1 44 -33 125 hhcurveto
          110 74 21 26 91 hvcurveto
          0 9 73 3 15 vhcurveto
          -275 hlineto
          95 630 6 41 -17 37 -30 31 rlinecurve
          -29 30 -54 31 -59 31 rrcurveto
          0 116 53 29 17 vhcurveto
          53 33 37 37 8 54 rrcurveto
          hintmask 11010000
          96 631 rlineto
          276 hlineto
          hintmask 10110000
          1 19 12 68 0 vvcurveto
          hintmask 11010000
          0 -171 47 -89 -157 -47 -54 -198 -31 vhcurveto
          -77 -517 -4 -23 -25 -21 -36 -19 rlinecurve
          -52 -27 -75 -22 -65 -16 -18 -124 rcurveline
          59 -14 63 -25 43 -29 rrcurveto
          32 -21 20 -24 -22 vvcurveto
          hintmask 10110000
          0 -89 -597 -1 -29 vhcurveto
          endchar
        </CharString>
        <CharString name="braceright">
          -86 -189 41 callgsubr
          355 431 hintmask 00000000
          hintmask 01110000
          786 1593 rmoveto
          110 1 -44 33 -125 hhcurveto
          -110 -74 -21 -26 -91 hvcurveto
          0 -9 -73 -3 -15 vhcurveto
          275 hlineto
          -95 -630 -6 -41 17 -37 30 -31 rlinecurve
          29 -30 54 -31 59 -31 rrcurveto
          0 -116 -53 -29 -17 vhcurveto
          -53 -33 -37 -37 -8 -54 rrcurveto
          hintmask 10110000
          -96 -631 rlineto
          -276 hlineto
          hintmask 01110000
          -1 -19 -12 -68 0 vvcurveto
          hintmask 10110000
          0 171 -47 89 157 47 54 198 31 vhcurveto
          77 517 4 23 25 21 36 19 rlinecurve
          52 27 75 22 65 16 18 124 rcurveline
          -59 14 -63 25 -43 29 rrcurveto
          -32 21 -20 24 22 vvcurveto
          hintmask 01110000
          0 89 597 1 29 vhcurveto
          endchar
        </CharString>
        <CharString name="bracketleft">
          -256 34 callgsubr
          180 403 hintmask 00000000
          hintmask 10110000
          180 -47 rmoveto
          -110 46 -33 126 109 73 21 26 91 vhcurveto
          3 28 3 29 4 29 rrcurveto
          -87 -100 2 -88 hhcurveto
          hintmask 11010000
          223 1656 rlineto
          275 hlineto
          hintmask 10110000
          13 87 rlineto
          hintmask 11010000
          0 -172 47 -88 -158 -47 -60 -192 -25 vhcurveto
          -60 -455 -116 -598 -21 -367 rrcurveto
          hintmask 10110000
          -3 -40 -1 -36 -34 vvcurveto
          endchar
        </CharString>
        <CharString name="bracketright">
          -256 -179 41 callgsubr
          333 403 hintmask 00000000
          hintmask 01110000
          736 1603 rmoveto
          110 -46 33 -126 -109 -73 -21 -26 -91 vhcurveto
          -3 -28 -3 -29 -4 -29 rrcurveto
          87 100 -2 88 hhcurveto
          hintmask 10110000
          -223 -1656 rlineto
          -275 hlineto
          hintmask 01110000
          -13 -87 rlineto
          hintmask 10110000
          0 172 -47 88 158 47 60 192 25 vhcurveto
          60 455 116 598 21 367 rrcurveto
          hintmask 01110000
          3 40 1 36 34 vvcurveto
          endchar
        </CharString>
        <CharString name="breve">
          -393 1300 147 hstem
          49 140 vstem
          348 1300 -105 callsubr
          endchar
        </CharString>
        <CharString name="breve.cap">
          -395 1629 147 hstem
          49 140 vstem
          348 -81 callgsubr
          endchar
        </CharString>
        <CharString name="brokenbar">
          23 callsubr
          886 rmoveto
          173 894 -173 hlineto
          -1966 vmoveto
          173 894 -173 hlineto
          endchar
        </CharString>
        <CharString name="bullet">
          -252 507 432 hstem
          233 427 vstem
          409 507 rmoveto
          153 98 140 120 99 -75 73 -101 -142 -109 -136 -120 -97 76 -79 100 hvcurveto
          endchar
        </CharString>
        <CharString name="c">
          -1 callsubr
          hstem
          85 199 vstem
          85 434 -90 callgsubr
          endchar
        </CharString>
        <CharString name="cacute">
          -1 callsubr
          105 472 hstemhm
          85 199 277 459 hintmask 00101000
          644 1261 -92 callgsubr
          hintmask 11010000
          -476 -898 -90 callgsubr
          endchar
        </CharString>
        <CharString name="caron">
          -315 1285 395 hstem
          80 734 vstem
          323 1285 -60 callgsubr
        </CharString>
        <CharString name="caron.cap">
          -317 1627 386 hstem
          50 734 vstem
          293 -61 callsubr
          endchar
        </CharString>
        <CharString name="caronvertical">
          -795 1035 645 hstem
          238 183 vstem
          303 1035 -74 callsubr
        </CharString>
        <CharString name="ccaron">
          -1 callsubr
          44 callsubr
          85 199 60 734 hintmask 00101000
          587 1285 -87 callsubr
          hintmask 11010000
          -259 -1158 -90 callgsubr
          endchar
        </CharString>
        <CharString name="ccedilla">
          -205 -464 165 310 -21 22 -21 1018 147 hstemhm
          85 199 103 171 hintmask 00000000
          hintmask 10111100
          157 -285 rmoveto
          -57 callgsubr
          63 -9 54 -15 39 hvcurveto
          139 24 103 92 44 59 -65 106 rcurveline
          -97 -100 -75 -42 -88 hhcurveto
          -134 -74 83 238 324 194 231 170 72 62 -15 -43 52 hvcurveto
          51 167 rlineto
          29 -57 -91 9 -72 hhcurveto
          -385 -195 -409 -313 hvcurveto
          hintmask 11011100
          -253 104 -160 198 -31 vhcurveto
          1 -35 -1 -43 -31 vvcurveto
          -149 -77 -31 -82 vhcurveto
          hintmask 10111100
          -31 -23 5 9 -17 hvcurveto
          endchar
        </CharString>
        <CharString name="ccircumflex">
          -1 callsubr
          83 451 hstemhm
          85 199 42 695 hintmask 00101000
          403 1239 -88 callgsubr
          hintmask 11010000
          -241 -882 -90 callgsubr
          endchar
        </CharString>
        <CharString name="cdotaccent">
          -1 callsubr
          33 callsubr
          85 199 262 267 hintmask 11010000
          85 434 -90 callgsubr
          hintmask 00101000
          576 954 -102 callsubr
        </CharString>
        <CharString name="cedilla">
          -631 -464 165 hstem
          259 171 vstem
          255 30 rmoveto
          7 -32 -3 -72 -45 -30 callsubr
          -57 callgsubr
          88 -17 68 -28 39 hvcurveto
          -53 4 rlineto
          endchar
        </CharString>
        <CharString name="cent">
          -53 -14 147 -126 -21 33 -21 1011 146 hstemhm
          137 199 hintmask 00000000
          hintmask 00111000
          400 -2 rmoveto
          -39 -213 rlineto
          150 hlineto
          hintmask 01011000
          37 201 159 13 117 102 48 65 rlinecurve
          -65 106 rlineto
          hintmask 10011000
          -97 -100 -75 -42 -88 hhcurveto
          -134 -74 83 238 324 194 231 170 72 62 -15 -43 52 hvcurveto
          51 167 -48 24 -71 11 -65 2 rlinecurve
          52 203 rlineto
          -150 hlineto
          -54 -216 rlineto
          -308 -72 -156 -356 -280 vvcurveto
          hintmask 00111000
          -236 91 -156 172 -44 vhcurveto
          endchar
        </CharString>
        <CharString name="circumflex">
          -315 1239 451 hstem
          89 695 vstem
          166 1239 -26 callsubr
        </CharString>
        <CharString name="circumflex.cap">
          -315 1683 -21 hstem
          49 695 vstem
          126 1585 -94 callsubr
        </CharString>
        <CharString name="colon">
          -584 -1 -21 830 -21 hstemhm
          68 276 -183 276 hintmask 10100000
          68 90 -67 callsubr
          hintmask 01010000
          93 809 -67 callsubr
          endchar
        </CharString>
        <CharString name="colonmonetary">
          223 -16 150 -129 -21 25 -21 32 -21 1395 152 -5 -20 hstemhm
          147 217 hintmask 00000000
          hintmask 00010110
          447 39 rmoveto
          -80 -392 rlineto
          116 hlineto
          72 352 rlineto
          hintmask 01000110
          -10 40 44 -5 48 hhcurveto
          1 hlineto
          -69 -337 rlineto
          117 hlineto
          hintmask 00101010
          70 341 175 14 138 44 67 66 rlinecurve
          -57 129 -78 -49 -84 -38 -130 -14 rlinecurve
          253 1241 76 -13 49 -21 18 -18 rlinecurve
          64 163 -45 14 -57 17 -74 11 rlinecurve
          57 281 rlineto
          -116 hlineto
          -55 -270 rlineto
          1 -15 -15 0 -16 hhcurveto
          -31 -30 -2 -3 -30 hvcurveto
          56 274 rlineto
          -117 hlineto
          -60 -295 rlineto
          -357 -91 -245 -325 -454 vvcurveto
          hintmask 00010110
          -241 86 -260 214 -110 vhcurveto
          hintmask 10001010
          140 118 rmoveto
          252 1231 rlineto
          4 29 30 2 31 hhcurveto
          16 16 0 -1 15 hvcurveto
          -257 -1259 rlineto
          -2 hlineto
          -49 -43 8 15 -38 hvcurveto
          -102 69 rmoveto
          -91 97 -34 166 4 192 6 350 127 235 218 89 rrcurveto
          endchar
        </CharString>
        <CharString name="comma">
          -584 -480 -21 hstem
          165 208 vstem
          -19 callsubr
          endchar
        </CharString>
        <CharString name="commaaccent">
          -743 -7 callgsubr
          hstem
          97 191 vstem
          31 -171 -100 callgsubr
          endchar
        </CharString>
        <CharString name="copyright">
          1019 82 129 268 157 657 157 264 126 hstem
          194 142 285 194 977 -45 callgsubr
          285 -7 rmoveto
          -248 163 -229 277 133 121 40 54 65 vhcurveto
          -45 124 rlineto
          -28 -50 -92 -33 -105 hhcurveto
          -160 -113 118 217 180 99 142 184 100 70 -27 -36 55 hvcurveto
          32 164 rlineto
          20 -35 -75 36 -128 hhcurveto
          -323 -173 -214 -280 hvcurveto
          endchar
        </CharString>
        <CharString name="currency">
          430 252 133 610 133 hstem
          342 148 584 148 vstem
          232 243 rmoveto
          114 -113 194 194 rlineto
          -46 69 83 -26 90 hhcurveto
          92 86 28 48 71 hvcurveto
          194 -193 114 113 -194 194 rlineto
          48 70 29 85 93 vvcurveto
          89 -27 83 -45 69 vhcurveto
          191 191 -113 114 -190 -189 rlineto
          51 -72 -89 30 -95 hhcurveto
          -91 -85 -28 -47 -70 hvcurveto
          -194 196 -113 -114 193 -193 rlineto
          -51 -71 -29 -87 -94 vvcurveto
          -96 30 -88 52 -71 vhcurveto
          66 255 rmoveto
          167 130 138 162 162 130 -138 -167 -167 -130 -138 -162 -162 -130 138 167 vhcurveto
          endchar
        </CharString>
        <CharString name="d">
          51 -56 callsubr
          -15 43 callgsubr
          hintmask 00000000
          hintmask 10101000
          -29 callsubr
          hintmask 01011000
          -44 callsubr
          hintmask 10101000
          -92 callsubr
          endchar
        </CharString>
        <CharString name="dagger">
          -295 1127 150 hstemhm
          135 740 -417 122 hintmask 00000000
          hintmask 11000000
          295 151 rmoveto
          117 hlineto
          hintmask 10100000
          165 857 6 119 rlineto
          271 hlineto
          21 150 rlineto
          -293 40 callgsubr
          -24 -177 -2 -192 rlineto
          -300 hlineto
          -22 -150 rlineto
          279 hlineto
          -26 -119 rlineto
          endchar
        </CharString>
        <CharString name="daggerdbl">
          -295 629 150 348 150 hstem
          387 204 vstem
          280 -51 rmoveto
          115 hlineto
          118 561 7 119 rlineto
          214 hlineto
          21 150 rlineto
          -225 hlineto
          59 202 6 146 rlineto
          259 hlineto
          21 150 rlineto
          -281 40 callgsubr
          -25 -177 -1 -192 rlineto
          -271 hlineto
          -20 -150 rlineto
          249 hlineto
          -40 -146 1 -202 rlineto
          -229 hlineto
          -24 -150 rlineto
          218 hlineto
          -29 -119 rlineto
          endchar
        </CharString>
        <CharString name="dcaron">
          319 -16 152 -115 -21 1005 645 -637 143 -15 43 callgsubr
          983 183 hintmask 00000000
          hintmask 10010100
          -29 callsubr
          hintmask 01001100
          -44 callsubr
          hintmask 10010100
          -92 callsubr
          hintmask 00100010
          905 869 -74 callsubr
        </CharString>
        <CharString name="dcroat">
          51 -56 callsubr
          -15 -20 141 130 11 callsubr
          hintmask 00000000
          hintmask 10101100
          -29 callsubr
          hintmask 01011100
          -16 -194 rlineto
          174 hlineto
          170 1262 rlineto
          128 hlineto
          16 130 rlineto
          -126 hlineto
          33 246 rlineto
          -195 hlineto
          -34 -246 rlineto
          -260 hlineto
          -16 -130 rlineto
          259 hlineto
          -17 -121 rlineto
          hintmask 10101100
          -92 callsubr
          endchar
        </CharString>
        <CharString name="degree">
          -211 955 121 403 121 hstem
          144 140 380 140 vstem
          463 955 rmoveto
          193 145 138 185 3 hvcurveto
          177 3 -140 145 -185 hhcurveto
          -193 -142 -139 -183 -3 hvcurveto
          -177 -3 137 -146 185 hhcurveto
          7 121 rmoveto
          -106 -82 91 111 2 hvcurveto
          115 2 80 86 111 hhcurveto
          106 83 -90 -111 -2 hvcurveto
          -116 -2 -81 -86 -111 hhcurveto
          endchar
        </CharString>
        <CharString name="dieresis">
          -301 1388 263 hstemhm
          60 26 callsubr
          hintmask 00000000
          hintmask 11100000
          595 1388 -31 callgsubr
        </CharString>
        <CharString name="dieresis.cap">
          -303 1696 1 callgsubr
          58 10 callsubr
          hintmask 00000000
          hintmask 01010000
          590 1696 rmoveto
          80 69 -23 callsubr
          hintmask 10010000
          -37 callgsubr
          hintmask 01010000
          -66 52 -53 63 vhcurveto
          hintmask 01100000
          -28 callgsubr
          hintmask 10100000
          63 2 -47 53 -77 hhcurveto
          -65 -75 -67 -77 -3 hvcurveto
          hintmask 01100000
          35 callsubr
        </CharString>
        <CharString name="divide">
          228 696 157 hstem
          241 887 vstem
          712 1026 rmoveto
          76 88 60 87 10 hvcurveto
          68 8 -36 57 -93 hhcurveto
          -75 -91 -63 -84 -9 hvcurveto
          -78 -9 61 -47 70 hhcurveto
          -471 -330 rmoveto
          869 hlineto
          18 157 rlineto
          -869 hlineto
          235 -476 rmoveto
          -78 -9 60 -47 71 hhcurveto
          78 84 60 87 11 hvcurveto
          67 8 -35 58 -93 hhcurveto
          -76 -89 -64 -83 -10 hvcurveto
          endchar
        </CharString>
        <CharString name="dollar">
          94 2 -21 1558 -20 hstem
          283 198 334 206 vstem
          129 68 rmoveto
          37 -31 116 -43 134 -13 -33 -211 rcurveline
          180 hlineto
          35 214 250 30 177 147 -4 260 rlinecurve
          -33 callgsubr
          -171 116 -70 68 7 160 rrcurveto
          171 8 153 35 119 hhcurveto
          76 128 -20 -65 63 hvcurveto
          63 151 -41 29 -75 37 -122 13 rlinecurve
          31 190 rlineto
          -181 hlineto
          -30 -188 -232 -26 -163 -145 5 -234 rlinecurve
          4 -222 158 -127 153 -101 rrcurveto
          165 -109 52 -92 -112 vvcurveto
          -175 -159 -66 -159 -126 -150 55 41 -37 vhcurveto
          endchar
        </CharString>
        <CharString name="dong">
          224 0 178 113 167 626 164 124 149 hstem
          183 208 vstem
          541 291 rmoveto
          180 99 69 41 49 hvcurveto
          -9 -70 -1 -8 -5 vvcurveto
          -12 3 -15 15 vhcurveto
          149 hlineto
          153 1081 rlineto
          235 hlineto
          23 149 rlineto
          -237 hlineto
          24 173 rlineto
          -196 hlineto
          -26 -173 rlineto
          -272 hlineto
          -23 -149 rlineto
          273 hlineto
          -24 -169 rlineto
          17 -32 -59 28 -96 hhcurveto
          -361 -223 -272 -325 -2 hvcurveto
          -245 -2 161 -115 199 hhcurveto
          28 167 rmoveto
          -114 -65 76 158 1 hvcurveto
          184 1 110 208 240 hhcurveto
          112 58 -27 -12 12 hvcurveto
          -68 -481 rlineto
          -22 -28 -55 -84 -204 hhcurveto
          -523 -458 rmoveto
          1105 hlineto
          27 178 rlineto
          -1105 hlineto
          endchar
        </CharString>
        <CharString name="dotaccent">
          -723 1388 263 hstem
          60 267 vstem
          175 1388 -102 callsubr
        </CharString>
        <CharString name="dotaccent.cap">
          -721 1717 -21 hstem
          58 265 vstem
          171 1696 -44 callgsubr
        </CharString>
        <CharString name="dotlessi">
          -11 callsubr
          hstem
          124 350 vstem
          124 hmoveto
          -83 callsubr
          endchar
        </CharString>
        <CharString name="dotlessj">
          21 callsubr
          hstem
          -230 702 vstem
          131 69 -94 callgsubr
          endchar
        </CharString>
        <CharString name="e">
          -75 -56 callgsubr
          hstem
          86 206 477 196 vstem
          86 434 -93 callsubr
        </CharString>
        <CharString name="eacute">
          -75 -56 callgsubr
          105 472 hstemhm
          86 206 263 459 -245 196 hintmask 00010100
          638 1261 -92 callgsubr
          hintmask 11101010
          -469 -898 -93 callsubr
        </CharString>
        <CharString name="ebreve">
          -75 -56 callgsubr
          144 147 hstemhm
          86 206 56 140 281 196 hintmask 11101010
          86 434 -106 callsubr
          hintmask 00010100
          350 736 -105 callsubr
          endchar
        </CharString>
        <CharString name="ecaron">
          -75 -56 callgsubr
          44 callsubr
          86 206 46 734 -303 196 hintmask 00010100
          581 1285 -87 callsubr
          hintmask 11101010
          -252 -1158 -93 callsubr
        </CharString>
        <CharString name="ecircumflex">
          -75 -56 callgsubr
          83 451 hstemhm
          86 206 28 695 -246 196 hintmask 00010100
          397 1239 -88 callgsubr
          hintmask 11101010
          -234 -882 -93 callsubr
        </CharString>
        <CharString name="edieresis">
          -75 -56 callgsubr
          33 callsubr
          86 206 33 26 callsubr
          -243 196 hintmask 00000000
          hintmask 00010110
          860 1388 rmoveto
          -107 callgsubr
          -420 hmoveto
          -107 callgsubr
          hintmask 11101001
          -354 -954 -93 callsubr
        </CharString>
        <CharString name="edotaccent">
          -75 -56 callgsubr
          33 callsubr
          86 206 248 267 -38 196 hintmask 11101010
          86 434 -106 callsubr
          hintmask 00010100
          358 824 -102 callsubr
        </CharString>
        <CharString name="egrave">
          -75 -56 callgsubr
          105 472 hstemhm
          86 206 -15 441 51 196 hintmask 11101010
          86 434 -106 callsubr
          hintmask 00010100
          336 697 -71 callgsubr
        </CharString>
        <CharString name="eight">
          160 -16 136 1320 129 hstemhm
          123 212 -38 201 370 216 -133 197 hintmask 00000000
          hintmask 11100100
          123 352 rmoveto
          -247 228 -121 206 vhcurveto
          hintmask 11101000
          292 235 157 266 168 -127 126 -146 102 hvcurveto
          hintmask 11010100
          170 55 167 179 203 vvcurveto
          202 -168 127 -216 -267 -200 -146 -262 -153 84 -99 109 -88 vhcurveto
          hintmask 11100100
          -193 -82 -174 -173 -214 vvcurveto
          586 527 rmoveto
          hintmask 11010100
          -123 88 -88 92 138 vvcurveto
          134 103 109 141 111 98 -74 -141 vhcurveto
          hintmask 11100100
          -158 -105 -127 -137 -61 vhcurveto
          -374 -502 rmoveto
          4 163 114 139 140 69 rrcurveto
          hintmask 11101000
          173 -115 102 -116 -148 vvcurveto
          -144 -117 -105 -159 vhcurveto
          hintmask 11100100
          -156 -101 106 151 hvcurveto
          endchar
        </CharString>
        <CharString name="ellipsis">
          469 -22 272 hstemhm
          87 280 246 280 246 280 cntrmask 01110000
          hintmask 00000000
          hintmask 11110000
          1140 103 rmoveto
          -20 callsubr
          -526 hmoveto
          -20 callsubr
          -526 hmoveto
          -20 callsubr
          endchar
        </CharString>
        <CharString name="emacron">
          -75 -56 callgsubr
          239 149 hstemhm
          86 206 118 514 -155 196 hintmask 11101010
          86 434 -106 callsubr
          hintmask 00010100
          113 831 -66 callsubr
          endchar
        </CharString>
        <CharString name="emdash">
          921 694 157 hstem
          218 1620 vstem
          218 694 rmoveto
          1590 hlineto
          30 157 rlineto
          -1591 hlineto
          endchar
        </CharString>
        <CharString name="endash">
          428 694 157 hstem
          218 1127 vstem
          218 694 rmoveto
          1097 hlineto
          30 157 rlineto
          -1097 hlineto
          endchar
        </CharString>
        <CharString name="eng">
          84 -518 106 433 -21 28 callgsubr
          hstemhm
          867 199 hintmask 00000000
          hintmask 11101000
          83 hmoveto
          -25 callgsubr
          96 710 rlineto
          139 105 170 126 113 hhcurveto
          65 40 -15 -106 -138 -50 -316 -54 -335 hvcurveto
          -239 -38 -70 -238 -194 hhcurveto
          -11 -41 4 8 -18 hvcurveto
          -35 -81 rlineto
          -24 22 55 -13 63 hhcurveto
          228 173 167 351 53 hvcurveto
          52 339 64 405 122 -35 callgsubr
          -162 -165 -109 -135 -115 vhcurveto
          hintmask 11011000
          21 228 37 callsubr
        </CharString>
        <CharString name="eogonek">
          -59 47 callsubr
          271 154 287 139 444 148 hstem
          86 206 62 194 221 196 vstem
          86 434 rmoveto
          -228 -6 116 -222 283 hhcurveto
          41 40 6 10 38 hvcurveto
          -78 -48 -166 -105 -128 vvcurveto
          -63 56 -91 137 116 87 58 36 42 vhcurveto
          -51 99 rlineto
          -39 callgsubr
          74 240 217 61 67 hvcurveto
          -8 -4 20 19 16 18 12 16 rlinecurve
          -55 111 rlineto
          -107 -114 -118 -52 -100 hhcurveto
          -184 -32 165 122 6 hvcurveto
          230 16 443 132 333 vvcurveto
          141 -89 109 -192 -351 -237 -321 -401 -10 vhcurveto
          211 130 6 callsubr
          20 120 268 204 hhcurveto
          74 54 -28 -91 -197 -310 -121 -162 -7 hvcurveto
          endchar
        </CharString>
        <CharString name="equal">
          -47 339 157 352 157 hstem
          96 903 vstem
          166 848 4 callgsubr
          -88 -666 4 callgsubr
          endchar
        </CharString>
        <CharString name="estimated">
          262 -16 117 530 137 470 118 hstem
          115 260 661 244 vstem
          375 280 rmoveto
          351 894 vlineto
          11 51 0 64 86 vvcurveto
          -11 329 -238 200 -289 -5 rrcurveto
          -420 -7 -207 -286 -392 vvcurveto
          -430 231 -257 392 138 199 37 61 85 vhcurveto
          -39 113 rlineto
          -33 -65 -151 -61 -145 hhcurveto
          -163 -140 47 132 -82 hvcurveto
          488 vmoveto
          285 vlineto
          132 79 131 53 144 hhcurveto
          157 95 -52 -77 55 hvcurveto
          -341 vlineto
          endchar
        </CharString>
        <CharString name="eth">
          72 -16 138 892 142 373 -20 174 -21 hstem
          89 211 592 196 vstem
          89 446 rmoveto
          -214 130 -248 276 386 207 404 481 272 -92 220 -207 197 vhcurveto
          148 169 -98 89 rlineto
          0 -90 -109 -63 -69 vhcurveto
          -94 62 -123 61 -76 20 -43 -119 rcurveline
          73 -19 89 -54 79 -60 -157 -163 rcurveline
          106 -88 150 168 127 -116 58 -108 29 -180 rlinecurve
          84 -50 -117 30 -89 hhcurveto
          -281 -278 -258 -452 hvcurveto
          211 -12 rmoveto
          271 102 309 240 179 74 -179 -60 -3 vhcurveto
          -2 -42 -15 -84 -8 -51 rrcurveto
          -258 -40 -135 -218 -168 hhcurveto
          -146 -78 152 160 hvcurveto
          endchar
        </CharString>
        <CharString name="exclam">
          -424 -1 -21 hstem
          402 25 vstem
          246 488 -52 callgsubr
          endchar
        </CharString>
        <CharString name="exclamdbl">
          193 -1 -21 hstemhm
          402 25 592 25 hintmask 10100000
          863 488 -52 callgsubr
          hintmask 11000000
          -502 385 -52 callgsubr
          endchar
        </CharString>
        <CharString name="exclamdown">
          -424 1345 21 hstem
          293 25 vstem
          474 856 rmoveto
          -158 hlineto
          -223 -1290 rlineto
          225 hlineto
          271 1675 rmoveto
          78 10 -59 47 -70 hhcurveto
          -88 -77 -58 -89 -12 hvcurveto
          -68 -9 34 -57 94 hhcurveto
          85 81 64 83 11 hvcurveto
          endchar
        </CharString>
        <CharString name="f">
          -415 21 -2 callsubr
          hintmask 00000000
          hintmask 11011000
          148 hmoveto
          -93 callgsubr
          hintmask 11101000
          -86 callsubr
          hintmask 11011000
          -3 callsubr
          hintmask 11101000
          -79 callsubr
        </CharString>
        <CharString name="f_f">
          280 21 -2 callsubr
          -49 744 hintmask 00000000
          hintmask 11011000
          148 hmoveto
          -93 callgsubr
          hintmask 11101000
          -86 callsubr
          hintmask 11011000
          -3 callsubr
          hintmask 11101000
          -99 callgsubr
          hintmask 00000000
          -45 callsubr
          hintmask 11010100
          -86 callsubr
          hintmask 11100100
          -3 callsubr
          hintmask 11010100
          -79 callsubr
        </CharString>
        <CharString name="f_f_i">
          -91 callsubr
        </CharString>
        <CharString name="f_f_i_trk">
          864 10 callgsubr
          0 -20 408 -33 callsubr
          -49 744 -67 350 hintmask 00000000
          hintmask 11001100
          148 hmoveto
          -93 callgsubr
          hintmask 11010100
          -86 callsubr
          hintmask 11001100
          -3 callsubr
          hintmask 11010100
          -99 callgsubr
          hintmask 00000000
          -45 callsubr
          hintmask 11001010
          -86 callsubr
          hintmask 11010010
          -3 callsubr
          hintmask 11001010
          -99 callgsubr
          hintmask 11010010
          538 -984 rmoveto
          -83 callsubr
          hintmask 10100001
          138 252 -102 callsubr
        </CharString>
        <CharString name="f_f_l">
          864 4 1634 -1617 -2 callsubr
          -49 744 -66 418 hintmask 10000001
          1515 4 -41 callsubr
          hintmask 00000000
          -1590 -1638 rmoveto
          -93 callgsubr
          hintmask 01101100
          -86 callsubr
          hintmask 01110100
          -3 callsubr
          hintmask 01101100
          -99 callgsubr
          hintmask 01110100
          -45 callsubr
          hintmask 00000000
          -86 callsubr
          hintmask 01101010
          -3 callsubr
          hintmask 01110010
          -79 callsubr
        </CharString>
        <CharString name="f_i_trk">
          169 10 callgsubr
          0 -20 272 263 -127 -33 callsubr
          -67 18 callgsubr
          6 callgsubr
          hintmask 1100011000000000
          148 hmoveto
          -93 callgsubr
          hintmask 1100101000000000
          -86 callsubr
          hintmask 1100011000000000
          -3 callsubr
          hintmask 1100101000000000
          -99 callgsubr
          hintmask 1010000100000000
          538 -984 rmoveto
          -83 callsubr
          hintmask 0001000010000000
          138 252 -102 callsubr
        </CharString>
        <CharString name="ffi_dflt">
          -91 callsubr
        </CharString>
        <CharString name="fi">
          -79 callgsubr
        </CharString>
        <CharString name="fi_trk">
          -79 callgsubr
        </CharString>
        <CharString name="five">
          6 -346 150 622 154 397 169 -169 185 hstemhm
          725 231 hintmask 00000000
          hintmask 11101000
          68 -189 rmoveto
          -23 -140 rlineto
          -14 40 57 -3 33 hhcurveto
          439 342 230 324 217 -106 155 -272 -63 -99 -11 -18 -66 hvcurveto
          116 426 rlineto
          546 hlineto
          hintmask 11011000
          38 185 rlineto
          -168 hlineto
          hintmask 11101000
          -22 -16 rlineto
          -547 hlineto
          -161 -698 73 -75 rlineto
          33 79 111 20 72 hhcurveto
          154 84 -86 -170 -249 -279 -117 -299 -23 -25 2 5 -31 hvcurveto
          endchar
        </CharString>
        <CharString name="fl">
          169 4 1634 -1617 -2 callsubr
          -66 418 hintmask 10000010
          820 4 -41 callsubr
          hintmask 00000000
          -895 -1638 rmoveto
          -93 callgsubr
          hintmask 01101100
          -86 callsubr
          hintmask 01110100
          -3 callsubr
          hintmask 01101100
          -79 callsubr
        </CharString>
        <CharString name="florin">
          -51 999 156 367 156 4 -21 hstemhm
          194 824 hintmask 00000000
          hintmask 10110000
          234 -356 rmoveto
          7 callgsubr
          176 1355 rlineto
          279 hlineto
          15 156 rlineto
          -273 hlineto
          18 133 rlineto
          hintmask 11010000
          204 28 78 30 106 hhcurveto
          93 36 -21 -10 19 hvcurveto
          hintmask 10110000
          11 170 rlineto
          hintmask 11010000
          6 -13 -53 11 -89 hhcurveto
          -165 -214 -151 -297 -40 hvcurveto
          -10 -75 -226 -54 -14 -102 rlineto
          219 hlineto
          endchar
        </CharString>
        <CharString name="four">
          154 0 139 -139 166 1001 -20 hstemhm
          20 1110 hintmask 00000000
          hintmask 10110000
          56 hmoveto
          616 hlineto
          -49 -375 rlineto
          189 hlineto
          47 375 rlineto
          250 hlineto
          hintmask 01110000
          21 174 -251 -15 63 490 -193 -35 rlineto
          hintmask 10110000
          -58 -466 -455 -17 79 99 596 937 -142 89 rlineto
          -47 hlineto
          -255 -455 -205 -341 -242 -366 rrcurveto
          endchar
        </CharString>
        <CharString name="four.numr">
          84 814 149 715 -21 hstem
          131 1014 vstem
          612 471 rmoveto
          -46 callsubr
          -606 -851 37 -95 rlineto
          492 hlineto
          endchar
        </CharString>
        <CharString name="foursuperior">
          -1110 endchar
        </CharString>
        <CharString name="fraction">
          -84 -5 callsubr
          141 840 vstem
          141 hmoveto
          -9 callgsubr
        </CharString>
        <CharString name="franc">
          118 21 -21 299 161 238 161 513 158 hstem
          36 1170 vstem
          219 hmoveto
          205 hlineto
          38 299 rlineto
          311 hlineto
          19 161 rlineto
          -309 hlineto
          31 246 474 -16 13 173 -469 -8 66 521 593 -8 15 162 rlineto
          -792 hlineto
          -136 -1070 rlineto
          -223 hlineto
          -19 -161 rlineto
          221 hlineto
          endchar
        </CharString>
        <CharString name="g">
          -46 callgsubr
          hstem
          79 202 vstem
          171 -304 -62 callgsubr
        </CharString>
        <CharString name="gbreve">
          -46 callgsubr
          144 147 11 callsubr
          135 140 hintmask 11101000
          171 -304 -106 callgsubr
          hintmask 00010100
          291 1164 -105 callsubr
          endchar
        </CharString>
        <CharString name="gcaron">
          -46 callgsubr
          44 callsubr
          79 202 71 734 hintmask 11101000
          171 -304 -106 callgsubr
          hintmask 00010100
          171 1149 -60 callgsubr
        </CharString>
        <CharString name="gcircumflex">
          -46 callgsubr
          83 451 11 callsubr
          107 695 hintmask 00010100
          465 1239 -88 callgsubr
          hintmask 11101000
          -217 -1620 -62 callgsubr
        </CharString>
        <CharString name="gcommaaccent">
          -46 callgsubr
          535 -21 47 -21 11 callsubr
          268 191 hintmask 00000000
          hintmask 00001010
          682 1237 rmoveto
          124 120 6 54 rlineto
          -40 9 -32 54 46 vvcurveto
          hintmask 00010010
          76 20 37 48 37 vhcurveto
          hintmask 00001010
          3 26 -80 50 rlineto
          -78 -18 -104 -108 -164 vvcurveto
          -96 51 -105 82 -18 vhcurveto
          hintmask 11100100
          -511 -1541 -62 callgsubr
        </CharString>
        <CharString name="gdotaccent">
          -46 callgsubr
          33 callsubr
          79 202 327 267 hintmask 11101000
          171 -304 -106 callgsubr
          hintmask 00010100
          299 1252 -102 callsubr
        </CharString>
        <CharString name="germandbls">
          70 -16 152 1312 141 hstemhm
          656 188 35 206 -192 202 hintmask 00000000
          hintmask 11101000
          77 4 rmoveto
          194 hlineto
          109 867 rlineto
          473 62 121 104 159 hhcurveto
          116 55 -71 -86 -114 -55 -81 -78 -83 hvcurveto
          -61 -65 -43 -56 -95 vvcurveto
          -87 75 -113 59 -70 vhcurveto
          hintmask 11110000
          40 -58 49 -94 -73 vvcurveto
          -125 -58 -40 -159 -1 vhcurveto
          -88 -1 -86 51 -34 32 -26 -187 rcurveline
          -22 44 120 -25 87 hhcurveto
          263 143 139 189 130 -67 108 -57 80 hvcurveto
          -51 71 -66 68 50 vvcurveto
          hintmask 11101000
          145 251 59 274 vvcurveto
          194 -135 98 -181 -215 -294 -58 -600 -76 vhcurveto
          endchar
        </CharString>
        <CharString name="grave">
          -569 1261 472 hstem
          69 441 vstem
          425 1261 -71 callgsubr
        </CharString>
        <CharString name="grave.cap">
          -588 1679 -21 hstem
          58 400 vstem
          385 1593 -17 callsubr
        </CharString>
        <CharString name="greater">
          258 179 1148 hstem
          250 1025 vstem
          1275 817 rmoveto
          -890 510 -20 -177 685 -388 -776 -389 -24 -194 1009 510 rlineto
          endchar
        </CharString>
        <CharString name="greaterequal">
          258 148 98 hstem
          141 1071 vstem
          1202 689 rmoveto
          10 78 -889 437 -24 -180 627 -289 -705 -295 -24 -194 rlineto
          892 -248 rmoveto
          20 150 rlineto
          -948 hlineto
          -20 -150 rlineto
          endchar
        </CharString>
        <CharString name="gtilde">
          -46 callgsubr
          192 -18 callgsubr
          79 202 -16 783 hintmask 11100010
          171 -304 -106 callgsubr
          hintmask 00000000
          -72 1261 -61 callgsubr
        </CharString>
        <CharString name="guillemotleft">
          768 152 934 hstemhm
          245 752 -76 752 hintmask 11000000
          245 530 -20 callgsubr
          hintmask 10100000
          654 -160 -20 callgsubr
          endchar
        </CharString>
        <CharString name="guillemotright">
          768 152 934 hstemhm
          218 752 -76 752 hintmask 11000000
          970 708 -21 callsubr
          hintmask 10100000
          698 160 -21 callsubr
          endchar
        </CharString>
        <CharString name="guilsinglleft">
          80 152 934 hstem
          234 752 vstem
          234 530 -20 callgsubr
          endchar
        </CharString>
        <CharString name="guilsinglright">
          80 152 934 hstem
          175 752 vstem
          927 708 -21 callsubr
          endchar
        </CharString>
        <CharString name="h">
          42 callsubr
          hstem
          870 199 vstem
          -77 callsubr
          52 479 rlineto
          -195 hlineto
          endchar
        </CharString>
        <CharString name="hbar">
          42 callsubr
          106 130 hstem
          870 199 vstem
          -77 callsubr
          11 103 rlineto
          264 hlineto
          16 130 rlineto
          -266 hlineto
          27 246 rlineto
          -195 hlineto
          -31 -246 rlineto
          -117 hlineto
          -16 -130 rlineto
          116 hlineto
          endchar
        </CharString>
        <CharString name="hcircumflex">
          42 callsubr
          323 -21 hstemhm
          437 695 -262 199 hintmask 11001000
          -77 callsubr
          52 479 rlineto
          -195 hlineto
          hintmask 00110000
          218 -257 -94 callsubr
        </CharString>
        <CharString name="hungarumlaut">
          -192 1272 470 hstem
          79 817 vstem
          599 1272 -51 callsubr
          endchar
        </CharString>
        <CharString name="hungarumlaut.cap">
          -188 1560 440 hstem
          59 862 vstem
          548 1560 -54 callsubr
        </CharString>
        <CharString name="hyphen">
          2 callsubr
        </CharString>
        <CharString name="i">
          -11 callsubr
          272 263 hstemhm
          124 18 callgsubr
          hintmask 11010000
          124 hmoveto
          -83 callsubr
          hintmask 00101000
          138 252 -102 callsubr
        </CharString>
        <CharString name="i.cy">
          -42 callsubr
        </CharString>
        <CharString name="i.dot">
          -42 callsubr
        </CharString>
        <CharString name="i.uc">
          -1110 endchar
        </CharString>
        <CharString name="iacute">
          -11 callsubr
          141 472 hstemhm
          124 350 -152 459 hintmask 00101000
          405 1261 -92 callgsubr
          hintmask 11010000
          -198 -1332 rmoveto
          -83 callsubr
          endchar
        </CharString>
        <CharString name="ibreve">
          -11 callsubr
          180 147 hstemhm
          115 140 -131 350 hintmask 11001000
          124 hmoveto
          -83 callsubr
          hintmask 00110000
          135 160 -105 callsubr
          endchar
        </CharString>
        <CharString name="icircumflex">
          -11 callsubr
          119 451 hstemhm
          87 695 -658 350 hintmask 00110000
          164 1239 -88 callgsubr
          hintmask 11001000
          37 -1316 rmoveto
          -83 callsubr
          endchar
        </CharString>
        <CharString name="idieresis">
          -11 callsubr
          268 263 hstemhm
          92 267 -235 350 38 267 hintmask 00000000
          hintmask 00110100
          627 1388 rmoveto
          -107 callgsubr
          -420 hmoveto
          -107 callgsubr
          hintmask 11001000
          -83 -1388 rmoveto
          -83 callsubr
          endchar
        </CharString>
        <CharString name="igrave">
          -11 callsubr
          141 472 hstemhm
          44 441 -361 350 hintmask 11001000
          124 hmoveto
          -83 callsubr
          hintmask 00110000
          121 121 -71 callgsubr
        </CharString>
        <CharString name="ij">
          53 -514 136 399 -51 callgsubr
          268 263 hstemhm
          124 18 callgsubr
          -213 19 callsubr
          hintmask 10100010
          717 69 -94 callgsubr
          hintmask 01101000
          -739 -1140 rmoveto
          -83 callsubr
          hintmask 00010100
          -77 callgsubr
          hintmask 00010001
          577 hmoveto
          -107 callgsubr
          endchar
        </CharString>
        <CharString name="ij_acutecomb">
          53 -514 136 399 -51 callgsubr
          141 472 hstemhm
          124 932 -152 459 hintmask 11101000
          385 1245 -92 callgsubr
          104 -1680 rmoveto
          -52 -111 rlineto
          -18 26 45 -21 63 hhcurveto
          213 158 199 319 43 hvcurveto
          154 1136 rlineto
          -195 hlineto
          -146 -1071 rlineto
          -240 -32 -46 -207 -177 hhcurveto
          -11 -32 5 9 -11 hvcurveto
          -282 364 rmoveto
          -83 callsubr
          hintmask 00010100
          708 121 -34 callgsubr
        </CharString>
        <CharString name="imacron">
          -11 callsubr
          275 149 hstemhm
          124 350 -297 514 hintmask 11010000
          124 hmoveto
          -83 callsubr
          hintmask 00101000
          -102 255 -66 callsubr
          endchar
        </CharString>
        <CharString name="infinity">
          694 225 152 467 164 hstem
          74 198 1260 198 vstem
          493 226 rmoveto
          179 2 140 113 91 126 rrcurveto
          -125 92 108 -117 197 hhcurveto
          271 159 150 256 185 -127 196 -289 -4 hvcurveto
          -176 -3 -140 -122 -91 -126 rrcurveto
          129 -95 -115 122 -203 hhcurveto
          -229 -191 -128 -278 -201 158 -179 261 4 hvcurveto
          23 152 rmoveto
          -167 -77 107 128 117 72 114 170 129 85 -134 -110 76 hvcurveto
          -128 -85 -91 -94 -112 hhcurveto
          492 245 rmoveto
          128 84 84 92 114 hhcurveto
          157 85 -106 -124 -121 -65 -115 -133 -143 -103 133 113 -80 hvcurveto
          endchar
        </CharString>
        <CharString name="integral">
          -68 -518 164 1875 164 hstem
          237 201 205 199 vstem
          194 -261 rmoveto
          -83 -134 rlineto
          -62 53 126 -61 149 hhcurveto
          302 101 208 280 hvcurveto
          430 -404 404 398 vvcurveto
          191 59 128 164 94 68 -35 -41 29 vhcurveto
          112 113 rlineto
          90 -59 -108 37 -131 hhcurveto
          -291 -138 -204 -278 hvcurveto
          -427 406 -408 -398 vvcurveto
          -263 -82 -61 -149 -117 -74 66 27 -27 vhcurveto
          endchar
        </CharString>
        <CharString name="iogonek">
          -469 47 callsubr
          308 -51 callgsubr
          268 263 hstemhm
          -98 194 193 294 -267 24 hintmask 00000000
          hintmask 11111010
          431 1388 rmoveto
          hintmask 11111100
          80 69 70 78 3 hvcurveto
          62 3 -49 53 -76 hhcurveto
          hintmask 11111010
          -73 -69 -67 -76 -3 hvcurveto
          -65 -3 53 -55 65 hhcurveto
          -285 -1388 rmoveto
          1 hlineto
          -77 -47 -168 -96 -138 vvcurveto
          -63 56 -91 137 116 87 58 36 42 vhcurveto
          hintmask 11111100
          -51 99 rlineto
          21 callgsubr
          38 hlineto
          155 1140 rlineto
          -195 hlineto
          endchar
        </CharString>
        <CharString name="itilde">
          -11 callsubr
          228 -18 callgsubr
          28 783 -687 350 hintmask 11000010
          124 hmoveto
          -83 callsubr
          hintmask 00000000
          -164 257 -47 callgsubr
          hintmask 00010100
          -2 111 17 -138 163 hhcurveto
          hintmask 00100100
          -63 callgsubr
          hintmask 00001100
          -48 -38 -32 -62 -74 hhcurveto
          hintmask 00100100
          -76 callsubr
          endchar
        </CharString>
        <CharString name="j">
          21 callsubr
          272 263 hstemhm
          -230 19 callsubr
          hintmask 11010000
          131 69 -94 callgsubr
          hintmask 00101000
          131 252 -102 callsubr
        </CharString>
        <CharString name="jcircumflex">
          21 callsubr
          119 451 hstemhm
          -230 702 -410 695 hintmask 11010000
          131 69 -94 callgsubr
          hintmask 00101000
          -138 99 -26 callsubr
        </CharString>
        <CharString name="k">
          -69 -11 callsubr
          hstem
          88 960 vstem
          88 hmoveto
          -40 callsubr
        </CharString>
        <CharString name="kcommaaccent">
          -69 -7 callgsubr
          531 -51 callgsubr
          hstemhm
          88 960 -602 191 hintmask 11000100
          380 -171 -10 callgsubr
          -441 70 rmoveto
          -40 callsubr
        </CharString>
        <CharString name="kgreenlandic">
          -69 21 -21 1155 -20 hstem
          83 971 vstem
          402 630 rmoveto
          355 -630 rlineto
          227 hlineto
          -364 597 121 61 200 164 80 200 rlinecurve
          17 43 12 45 4 45 rrcurveto
          -186 hlineto
          -17 -47 -21 -44 -24 -42 -103 -182 -155 -128 -146 -81 1 -1 rcurveline
          -320 -630 -15 callsubr
          156 1155 rlineto
          -194 hlineto
          endchar
        </CharString>
        <CharString name="l">
          4 1634 hstem
          125 418 vstem
          125 4 -41 callsubr
          endchar
        </CharString>
        <CharString name="lacute">
          21 -21 1522 -20 177 -21 hstemhm
          125 404 -146 400 hintmask 11010000
          125 hmoveto
          -25 callgsubr
          209 1522 rlineto
          -195 hlineto
          hintmask 00101000
          122 71 -96 callsubr
          endchar
        </CharString>
        <CharString name="lcaron">
          -325 6 1634 -635 645 hstemhm
          125 418 179 183 hintmask 10100000
          125 6 -41 callsubr
          hintmask 01010000
          439 -635 -74 callsubr
        </CharString>
        <CharString name="lcommaaccent">
          -7 callgsubr
          514 1634 hstemhm
          125 418 -382 191 hintmask 11001000
          95 -171 -100 callgsubr
          hintmask 00110000
          -119 74 -41 callsubr
          endchar
        </CharString>
        <CharString name="ldot">
          -272 4 1634 -993 -21 hstemhm
          125 418 63 276 hintmask 10100000
          125 4 -41 callsubr
          hintmask 01010000
          258 -902 -67 callsubr
          endchar
        </CharString>
        <CharString name="less">
          258 176 1148 hstem
          195 1025 vstem
          195 686 rmoveto
          890 -510 20 177 -685 388 776 389 24 194 -1009 -510 rlineto
          endchar
        </CharString>
        <CharString name="lessequal">
          258 -2 150 hstem
          139 1065 vstem
          197 689 rmoveto
          896 -443 21 182 -629 296 698 297 21 183 -998 -437 rlineto
          -67 -769 rmoveto
          948 hlineto
          18 150 rlineto
          -948 hlineto
          endchar
        </CharString>
        <CharString name="lira">
          391 -20 146 456 139 131 139 409 145 hstem
          1163 210 vstem
          31 60 rmoveto
          -55 44 -25 43 82 94 53 68 53 vhcurveto
          -32 151 162 -89 216 hhcurveto
          455 41 231 127 1 hvcurveto
          1 108 -62 103 -80 63 -159 -121 rcurveline
          51 -28 39 -77 -53 vvcurveto
          -122 -74 -85 -242 -144 -133 50 33 -109 vhcurveto
          76 116 33 74 35 183 rrcurveto
          365 hlineto
          20 139 rlineto
          -361 hlineto
          23 131 rlineto
          378 hlineto
          19 139 rlineto
          -373 hlineto
          341 64 106 68 144 hhcurveto
          118 76 -62 -16 14 hvcurveto
          86 141 rlineto
          69 -65 -131 13 -69 hhcurveto
          -340 -165 -271 -283 -45 hvcurveto
          -230 hlineto
          -19 -139 rlineto
          226 hlineto
          -22 -131 rlineto
          -244 hlineto
          -19 -139 rlineto
          239 hlineto
          -15 -89 -11 -81 -23 -123 -66 -53 rlinecurve
          -169 -32 -85 -72 -72 vvcurveto
          endchar
        </CharString>
        <CharString name="logicalnot">
          260 701 152 hstem
          211 977 vstem
          211 701 rmoveto
          783 hlineto
          -45 -379 rlineto
          177 hlineto
          62 531 rlineto
          -960 hlineto
          endchar
        </CharString>
        <CharString name="lozenge">
          65 21 -21 hstem
          50 1075 vstem
          585 hmoveto
          5 hlineto
          535 762 rlineto
          13 vlineto
          -535 741 rlineto
          -4 hlineto
          -536 -741 rlineto
          -13 vlineto
          536 -469 rmoveto
          -319 473 rlineto
          6 vlineto
          319 454 rlineto
          3 hlineto
          319 -454 rlineto
          -3 vlineto
          -319 -476 rlineto
          endchar
        </CharString>
        <CharString name="lslash">
          1149 -20 hstem
          88 534 vstem
          125 4 -15 callsubr
          127 929 175 69 rlineto
          147 vlineto
          -155 -63 76 552 rlineto
          -195 hlineto
          -87 -637 -173 -71 rlineto
          -137 vlineto
          153 60 rlineto
          endchar
        </CharString>
        <CharString name="m">
          659 28 callgsubr
          hstemhm
          1443 199 hintmask 00000000
          hintmask 10100000
          -72 callsubr
          hintmask 01100000
          20 214 37 callsubr
        </CharString>
        <CharString name="macron">
          -496 1395 149 hstem
          81 514 vstem
          81 1395 -66 callsubr
          endchar
        </CharString>
        <CharString name="macron.cap">
          -496 1729 149 hstem
          36 514 vstem
          36 7 callsubr
          endchar
        </CharString>
        <CharString name="minus">
          2 callsubr
        </CharString>
        <CharString name="minute">
          -487 1190 592 hstem
          275 334 vstem
          275 1190 14 callgsubr
          endchar
        </CharString>
        <CharString name="mu">
          -75 callsubr
        </CharString>
        <CharString name="multiply">
          260 315 900 hstem
          231 966 vstem
          333 315 rmoveto
          369 350 281 -350 132 123 -301 327 383 327 -102 123 -369 -350 -281 350 -132 -123 301 -327 -383 -327 rlineto
          endchar
        </CharString>
        <CharString name="n">
          84 28 callgsubr
          hstemhm
          867 199 hintmask 00000000
          hintmask 10100000
          83 4 -101 callgsubr
          hintmask 01100000
          30 callgsubr
        </CharString>
        <CharString name="nacute">
          84 46 callsubr
          105 472 hstemhm
          569 459 -161 199 hintmask 01100000
          652 1261 -92 callgsubr
          hintmask 00000000
          -486 -1328 -101 callgsubr
          hintmask 10010000
          30 callgsubr
        </CharString>
        <CharString name="napostrophe">
          -1110 endchar
        </CharString>
        <CharString name="nbspace">
          -625 endchar
        </CharString>
        <CharString name="ncaron">
          84 46 callsubr
          44 callsubr
          352 734 -219 199 hintmask 01100000
          595 1285 -87 callsubr
          hintmask 00000000
          -269 -1588 -101 callgsubr
          hintmask 10010000
          30 callgsubr
        </CharString>
        <CharString name="ncommaaccent">
          84 -7 callgsubr
          1485 181 hstemhm
          423 191 253 199 hintmask 11010000
          357 -171 -100 callgsubr
          hintmask 00000000
          -423 74 -101 callgsubr
          hintmask 00101000
          30 callgsubr
        </CharString>
        <CharString name="nine">
          153 148 153 724 138 hstem
          139 199 569 197 vstem
          203 -313 rmoveto
          44 -115 rlineto
          493 137 364 431 514 vvcurveto
          273 -139 236 -274 -359 -193 -329 -292 -200 103 -194 276 151 98 64 66 62 vhcurveto
          -94 -251 -231 -231 -301 -109 rrcurveto
          363 614 rmoveto
          -127 -101 78 192 179 84 275 223 193 69 -170 -182 -72 -8 -56 -19 -85 hvcurveto
          -50 -40 -93 -109 -181 hhcurveto
          endchar
        </CharString>
        <CharString name="notequal">
          -47 21 -21 339 157 352 157 hstemhm
          96 903 -846 770 hintmask 10001000
          153 hmoveto
          159 hlineto
          611 1324 rlineto
          -159 hlineto
          hintmask 01110000
          -598 -476 4 callgsubr
          -88 -666 4 callgsubr
          endchar
        </CharString>
        <CharString name="ntilde">
          84 28 callgsubr
          228 -18 callgsubr
          275 783 -191 199 hintmask 00000000
          hintmask 10000010
          83 4 -101 callgsubr
          hintmask 01000010
          -4 callgsubr
          hintmask 00000000
          124 257 -47 callgsubr
          hintmask 00010100
          -2 111 17 -138 163 hhcurveto
          hintmask 00100100
          -63 callgsubr
          hintmask 00001100
          -48 -38 -32 -62 -74 hhcurveto
          hintmask 00100100
          -76 callsubr
          endchar
        </CharString>
        <CharString name="numbersign">
          295 21 -21 365 128 405 127 hstem
          111 1195 vstem
          267 hmoveto
          162 hlineto
          62 365 rlineto
          312 hlineto
          -51 -365 rlineto
          160 hlineto
          57 365 rlineto
          239 hlineto
          8 128 rlineto
          -227 hlineto
          65 405 rlineto
          244 hlineto
          8 127 rlineto
          -232 hlineto
          54 332 rlineto
          -165 hlineto
          -56 -332 rlineto
          -311 hlineto
          51 332 rlineto
          -165 hlineto
          -53 -332 rlineto
          -232 hlineto
          -8 -127 rlineto
          220 hlineto
          -64 -405 rlineto
          -226 hlineto
          -8 -128 rlineto
          214 hlineto
          186 128 rmoveto
          65 405 rlineto
          311 hlineto
          -64 -405 rlineto
          endchar
        </CharString>
        <CharString name="o">
          25 -43 callsubr
          hstem
          89 203 544 205 vstem
          -90 callsubr
          endchar
        </CharString>
        <CharString name="oacute">
          25 -43 callsubr
          105 472 46 callgsubr
          267 459 -182 205 hintmask 00101000
          642 1261 -92 callgsubr
          hintmask 11010100
          -470 -887 -104 callgsubr
          endchar
        </CharString>
        <CharString name="obreve">
          25 -43 callsubr
          144 147 46 callgsubr
          60 140 344 205 hintmask 11010100
          -90 callsubr
          hintmask 00101000
          142 1169 -105 callsubr
          endchar
        </CharString>
        <CharString name="ocircumflex">
          25 -43 callsubr
          83 451 46 callgsubr
          32 695 -183 205 hintmask 00101000
          401 1239 -88 callgsubr
          hintmask 11010100
          -235 -871 -104 callgsubr
          endchar
        </CharString>
        <CharString name="odieresis">
          25 -43 callsubr
          33 callsubr
          89 203 37 26 callsubr
          -180 205 hintmask 00000000
          hintmask 00101100
          864 1388 rmoveto
          -107 callgsubr
          -420 hmoveto
          -107 callgsubr
          hintmask 11010010
          -355 -943 -104 callgsubr
          endchar
        </CharString>
        <CharString name="oe">
          654 -16 147 -147 154 287 139 445 147 46 callgsubr
          1206 196 hintmask 00000000
          hintmask 10011100
          89 443 rmoveto
          -291 5 132 -168 253 hhcurveto
          156 133 78 120 98 hvcurveto
          -116 59 110 -82 173 hhcurveto
          194 159 123 79 57 hvcurveto
          -55 111 rlineto
          hintmask 01111100
          -107 -114 -118 -52 -100 hhcurveto
          -184 -32 165 122 6 hvcurveto
          230 16 443 132 333 vvcurveto
          141 -89 109 -192 -172 -144 -77 -125 -104 vhcurveto
          130 -60 -115 72 -168 hhcurveto
          hintmask 10011100
          -336 -231 -355 -358 6 hvcurveto
          420 -312 rmoveto
          -146 -68 115 199 -3 hvcurveto
          245 -5 104 319 228 hhcurveto
          146 68 -110 -193 3 hvcurveto
          1 -40 -3 -40 -4 -41 -4 -21 -3 -20 -2 -21 rrcurveto
          -201 -36 -102 -191 -174 hhcurveto
          hintmask 10111100
          517 433 6 callsubr
          20 120 268 204 hhcurveto
          74 54 -28 -91 -197 -310 -121 -162 -7 hvcurveto
          endchar
        </CharString>
        <CharString name="ogonek">
          -623 47 callsubr
          308 -21 hstem
          10 194 vstem
          255 hmoveto
          -65 callgsubr
          9 callsubr
          hvcurveto
          -60 59 rlineto
          endchar
        </CharString>
        <CharString name="ograve">
          25 -43 callsubr
          105 472 46 callgsubr
          -11 441 114 205 hintmask 11010100
          -90 callsubr
          hintmask 00101000
          128 1130 -71 callgsubr
        </CharString>
        <CharString name="ohungarumlaut">
          25 -43 callsubr
          116 470 46 callgsubr
          101 817 -374 205 hintmask 00101000
          913 1272 -51 callsubr
          hintmask 11010100
          -304 -881 -104 callgsubr
          endchar
        </CharString>
        <CharString name="omacron">
          25 -43 callsubr
          239 149 46 callgsubr
          122 514 -92 205 hintmask 00101000
          414 1395 -66 callsubr
          hintmask 11010100
          -329 -1099 -104 callgsubr
          endchar
        </CharString>
        <CharString name="one">
          -180 21 -21 1162 -20 hstem
          176 500 vstem
          315 hmoveto
          201 hlineto
          160 1142 -84 20 -106 -73 -170 -98 -140 -31 rlinecurve
          22 -127 87 15 75 19 77 25 rlinecurve
          endchar
        </CharString>
        <CharString name="one.numr">
          -90 636 1009 hstem
          278 485 vstem
          443 -31 callsubr
          endchar
        </CharString>
        <CharString name="onehalf">
          1450 -78 126 -27 -21 779 153 598 -20 hstemhm
          705 840 513 192 hintmask 10100100
          473 -31 callsubr
          829 -1377 rmoveto
          45 -96 rlineto
          -40 callgsubr
          hintmask 01011000
          -699 -18 rmoveto
          -9 callgsubr
        </CharString>
        <CharString name="onequarter">
          1450 21 -21 166 149 1215 -20 hstemhm
          308 1981 -1583 840 hintmask 01010000
          473 -31 callsubr
          700 -1134 rmoveto
          37 -95 rlineto
          492 hlineto
          -48 -343 rlineto
          -46 callsubr
          hintmask 10101000
          -1175 -1112 rmoveto
          -9 callgsubr
        </CharString>
        <CharString name="onesuperior">
          -1110 endchar
        </CharString>
        <CharString name="ordfeminine">
          -256 743 118 614 102 hstem
          94 174 vstem
          333 743 rmoveto
          122 77 66 61 52 hvcurveto
          -24 -127 rlineto
          167 hlineto
          146 831 -100 -26 rlineto
          15 -45 -70 14 -60 hhcurveto
          -291 -1 -213 -282 -254 vvcurveto
          -183 81 -114 158 vhcurveto
          70 118 rmoveto
          -103 -32 74 120 184 112 236 193 29 39 -13 -25 28 hvcurveto
          -78 -463 rlineto
          -51 -51 -77 -62 -60 hhcurveto
          endchar
        </CharString>
        <CharString name="ordmasculine">
          -256 733 125 613 118 hstem
          98 184 395 186 vstem
          423 733 rmoveto
          218 -4 222 172 313 vvcurveto
          218 -133 154 -193 3 vhcurveto
          -203 3 -236 -175 -312 vvcurveto
          -225 151 -144 174 -3 vhcurveto
          9 125 rmoveto
          -89 1 -61 105 159 vvcurveto
          134 55 212 187 2 vhcurveto
          106 1 47 -117 -159 vvcurveto
          -145 -42 -195 -203 2 vhcurveto
          endchar
        </CharString>
        <CharString name="oslash">
          25 -14 147 878 147 hstem
          90 203 544 205 vstem
          -67 callgsubr
          endchar
        </CharString>
        <CharString name="oslashacute">
          25 -14 147 878 147 103 472 hstemhm
          90 203 256 459 -171 205 hintmask 11010100
          -67 callgsubr
          hintmask 00101000
          270 1064 -34 callgsubr
        </CharString>
        <CharString name="otilde">
          25 -43 callsubr
          192 -18 callgsubr
          89 203 -27 783 -212 205 hintmask 11000101
          -90 callsubr
          hintmask 00000000
          -157 1266 -47 callgsubr
          hintmask 00010010
          -2 111 17 -138 163 hhcurveto
          hintmask 00100010
          -63 callgsubr
          hintmask 00001010
          -48 -38 -32 -62 -74 hhcurveto
          hintmask 00100010
          -76 callsubr
          endchar
        </CharString>
        <CharString name="p">
          22 callsubr
          hstemhm
          866 202 hintmask 00000000
          hintmask 10110100
          278 -1 rmoveto
          hintmask 11010100
          -9 48 50 -6 44 -34 callsubr
          -158 -131 -103 -100 -76 hvcurveto
          hintmask 11001100
          12 callgsubr
          hintmask 11010100
          -50 callgsubr
          hvcurveto
          hintmask 11001100
          -55 -54 9 15 -44 hvcurveto
          endchar
        </CharString>
        <CharString name="paragraph">
          254 21 -21 1414 157 -122 103 hstemhm
          161 1188 hintmask 00000000
          hintmask 11010000
          414 hmoveto
          192 hlineto
          177 1414 rlineto
          194 hlineto
          -175 -1414 rlineto
          190 hlineto
          hintmask 10110000
          50 421 79 573 50 422 167 33 rcurveline
          hintmask 11010000
          11 103 rlineto
          -259 hlineto
          -120 -90 19 -164 hhcurveto
          -402 -158 -184 -270 5 hvcurveto
          4 -218 137 -120 214 -5 rrcurveto
          endchar
        </CharString>
        <CharString name="parenleft">
          -256 1703 -21 hstem
          203 208 vstem
          203 505 rmoveto
          -513 266 -261 74 -50 vhcurveto
          17 hlineto
          108 64 rlineto
          -71 60 -186 266 441 vvcurveto
          74 9 104 11 83 vhcurveto
          92 526 307 329 84 54 -87 59 rcurveline
          -98 -53 -433 -387 -78 -577 rrcurveto
          -10 -77 -5 -73 -69 vvcurveto
          endchar
        </CharString>
        <CharString name="parenright">
          -256 -275 21 hstem
          464 208 vstem
          672 923 rmoveto
          513 -266 261 -74 50 vhcurveto
          -17 hlineto
          -108 -64 rlineto
          71 -60 186 -266 -441 vvcurveto
          -74 -9 -104 -11 -83 vhcurveto
          -92 -526 -307 -329 -84 -54 87 -59 rcurveline
          98 53 433 387 78 577 rrcurveto
          10 77 5 73 69 vvcurveto
          endchar
        </CharString>
        <CharString name="partialdiff">
          257 -16 162 751 153 471 164 hstem
          166 211 641 208 vstem
          166 461 rmoveto
          -293 15 214 -184 275 hhcurveto
          418 138 387 451 415 -169 448 -510 -108 -152 -27 -65 -90 hvcurveto
          73 -126 rlineto
          32 52 102 22 81 hhcurveto
          337 136 -227 -289 32 hvcurveto
          30 -83 -93 15 -92 hhcurveto
          -331 -266 -202 -387 21 hvcurveto
          211 34 rmoveto
          284 -15 191 118 172 hhcurveto
          112 92 -12 -46 89 hvcurveto
          -293 -43 -400 -287 -229 -71 151 198 -11 vhcurveto
          endchar
        </CharString>
        <CharString name="percent">
          801 -9 callsubr
          6 callgsubr
          hintmask 1110111111000000
          396 hmoveto
          159 hlineto
          947 -49 callsubr
          rlineto
          -159 hlineto
          hintmask 1101111111000000
          -38 callgsubr
          hintmask 1110111111000000
          529 -494 -64 callsubr
          endchar
        </CharString>
        <CharString name="period">
          -584 -1 -21 hstem
          89 276 vstem
          89 90 -67 callsubr
          endchar
        </CharString>
        <CharString name="periodcentered">
          -424 645 -21 hstem
          208 276 vstem
          208 736 -67 callsubr
          endchar
        </CharString>
        <CharString name="perthousand">
          1588 -9 callsubr
          97 161 359 170 hintmask 0110000000110000
          1824 374 -64 callsubr
          6 callgsubr
          -1589 -376 rmoveto
          159 hlineto
          947 -49 callsubr
          rlineto
          -159 hlineto
          hintmask 1110111111000000
          -38 callgsubr
          hintmask 1101111111000000
          529 -494 -64 callsubr
          endchar
        </CharString>
        <CharString name="peseta">
          368 21 -21 518 159 279 147 291 152 -16 -20 hstemhm
          1095 207 hintmask 00000000
          hintmask 11110100
          212 hmoveto
          205 hlineto
          67 527 rlineto
          -5 29 77 -4 95 hhcurveto
          301 226 163 275 69 hvcurveto
          215 hlineto
          20 147 rlineto
          -215 hlineto
          1 16 0 16 16 vvcurveto
          270 -1 -166 125 -292 hhcurveto
          hintmask 11101100
          -111 -109 -16 -99 hhcurveto
          -118 hlineto
          -54 -427 rlineto
          -199 hlineto
          -20 -147 rlineto
          200 hlineto
          223 147 rmoveto
          hintmask 11110100
          34 270 rlineto
          12 58 108 9 53 hhcurveto
          200 90 -92 -168 -4 hvcurveto
          -11 -1 -10 -10 vvcurveto
          -590 -412 rmoveto
          33 265 rlineto
          536 hlineto
          -47 -179 -120 -98 -214 -2 -54 -1 -98 7 -36 8 rrcurveto
          endchar
        </CharString>
        <CharString name="pi">
          446 -16 172 -159 -21 979 185 hstemhm
          877 203 hintmask 00000000
          hintmask 01110000
          135 97 rmoveto
          134 -121 59 14 53 26 39 36 rlinecurve
          90 83 59 65 12 228 68 527 rcurveline
          322 hlineto
          -90 -698 rlineto
          hintmask 10110000
          -169 -22 72 -104 154 hhcurveto
          170 134 135 122 20 hvcurveto
          -107 49 rlineto
          -54 -28 -66 -80 -59 hhcurveto
          -38 -35 21 86 4 hvcurveto
          72 692 rlineto
          4 hlineto
          180 104 72 188 11 hvcurveto
          -142 hlineto
          -54 -18 -47 -21 -82 hhcurveto
          -713 hlineto
          -192 -99 -65 -155 -38 hvcurveto
          111 -53 rlineto
          39 36 53 50 94 hhcurveto
          51 hlineto
          -76 -469 -12 -140 -10 -105 -110 -81 rlinecurve
          hintmask 01110000
          -52 -37 -52 -23 -18 -4 rrcurveto
          endchar
        </CharString>
        <CharString name="plus">
          256 693 158 hstem
          241 915 vstem
          554 295 rmoveto
          179 hlineto
          28 241 3 55 5 54 2 2 callgsubr
          -27 -230 -13 -165 -138 11 rlineto
          -226 24 callgsubr
          endchar
        </CharString>
        <CharString name="plusminus">
          256 30 150 513 158 hstem
          172 984 vstem
          554 295 rmoveto
          179 hlineto
          27 241 3 55 5 54 3 2 callgsubr
          -26 -230 -4 -54 -6 -56 -4 -55 rlinecurve
          -139 11 rlineto
          -225 24 callgsubr
          -409 -506 rmoveto
          869 hlineto
          17 150 rlineto
          -869 hlineto
          endchar
        </CharString>
        <CharString name="product">
          547 1356 166 hstem
          331 225 545 225 vstem
          331 -170 rmoveto
          225 1526 545 -1526 225 1526 193 166 -1381 -166 193 hlineto
          endchar
        </CharString>
        <CharString name="q">
          49 -485 -21 490 152 877 143 6 43 callgsubr
          hintmask 00000000
          hintmask 11101000
          389 38 callgsubr
          130 104 103 77 hvcurveto
          -35 -187 -68 -510 rlineto
          -25 callgsubr
          hintmask 11011000
          220 1668 rlineto
          hintmask 11101000
          -123 -37 rlineto
          17 -64 -84 14 -66 hhcurveto
          -451 -197 -30 callgsubr
          -260 98 -172 212 hvcurveto
          35 152 -78 callsubr
          54 52 -9 -15 44 hvcurveto
          -83 -608 rlineto
          -105 -69 -130 -140 -140 hhcurveto
          endchar
        </CharString>
        <CharString name="question">
          -90 -1 -21 1641 160 hstemhm
          269 190 -125 276 211 181 hintmask 00000000
          hintmask 11101000
          359 464 rmoveto
          17 -1 127 50 rlineto
          -7 31 -37 69 60 250 543 -46 471 vvcurveto
          213 -133 218 -368 -79 -95 -23 -30 -29 vhcurveto
          -28 -140 rlineto
          26 80 54 7 83 hhcurveto
          161 173 -101 -201 -28 -2 -39 -7 -29 hvcurveto
          -19 -90 -124 -74 -111 -57 rrcurveto
          -191 -103 -98 -86 -119 vvcurveto
          -92 42 -95 48 -41 vhcurveto
          hintmask 11011000
          -25 -374 -67 callsubr
          endchar
        </CharString>
        <CharString name="questiondown">
          -82 -365 160 1369 272 hstemhm
          87 181 211 276 -125 190 hintmask 00000000
          hintmask 11110000
          598 1164 rmoveto
          95 62 77 83 66 -54 46 -65 -95 -62 -60 -100 -59 34 -53 85 hvcurveto
          hintmask 11101000
          -511 -1098 rmoveto
          -213 133 -218 368 79 95 23 30 29 vhcurveto
          28 140 rlineto
          -26 -80 -54 -7 -83 hhcurveto
          -161 -173 101 201 28 2 39 7 29 hvcurveto
          19 90 124 74 111 57 rrcurveto
          191 103 98 86 119 vvcurveto
          92 -42 95 -48 41 vhcurveto
          -17 1 -127 -50 rlineto
          7 -31 37 -69 -60 -250 -543 46 -471 vvcurveto
          endchar
        </CharString>
        <CharString name="quotedbl">
          -107 966 721 hstemhm
          224 304 175 304 hintmask 11000000
          224 966 14 callsubr
          hintmask 10100000
          402 -721 14 callsubr
          endchar
        </CharString>
        <CharString name="quotedblbase">
          51 -523 814 hstemhm
          272 217 262 217 hintmask 11000000
          -28 callsubr
          hintmask 10100000
          479 -24 callsubr
        </CharString>
        <CharString name="quotedblleft">
          51 927 814 hstemhm
          189 217 262 217 hintmask 10100000
          850 927 rmoveto
          -55 callsubr
          hintmask 11000000
          -479 hmoveto
          -55 callsubr
          endchar
        </CharString>
        <CharString name="quotedblright">
          51 916 814 hstemhm
          456 217 262 217 hintmask 10100000
          970 -27 callsubr
          hintmask 11000000
          -479 -24 callsubr
        </CharString>
        <CharString name="quoteleft">
          -428 927 814 hstem
          189 217 vstem
          371 927 rmoveto
          -55 callsubr
          endchar
        </CharString>
        <CharString name="quotereversed">
          -428 896 820 hstem
          187 206 vstem
          381 896 rmoveto
          102 87 4 22 -58 52 -65 144 42 155 rlinecurve
          20 75 48 65 75 35 6 41 rcurveline
          -87 144 -89 -12 -129 -97 -43 -155 rlinecurve
          -74 -273 144 -193 104 -90 rrcurveto
          endchar
        </CharString>
        <CharString name="quoteright">
          -428 916 814 hstem
          386 217 vstem
          421 -27 callsubr
          endchar
        </CharString>
        <CharString name="quotesinglbase">
          -428 -523 814 hstem
          272 217 vstem
          -28 callsubr
          endchar
        </CharString>
        <CharString name="quotesingle">
          -586 966 721 hstem
          224 304 vstem
          224 966 14 callsubr
          endchar
        </CharString>
        <CharString name="r">
          -324 21 -21 949 207 -16 -20 23 -20 20 13 hstemhm
          82 733 hintmask 00000000
          hintmask 10010100
          82 hmoveto
          -25 callgsubr
          92 673 rlineto
          hintmask 11000100
          -12 callsubr
          hintmask 10001100
          44 208 rlineto
          hintmask 11000100
          -14 callsubr
          hintmask 10100100
          16 callsubr
        </CharString>
        <CharString name="racute">
          34 callsubr
          105 472 hstemhm
          82 733 -545 459 hintmask 00001010
          353 1261 -92 callgsubr
          hintmask 00000000
          -188 -1332 -15 callsubr
          92 673 rlineto
          hintmask 10100100
          -12 callsubr
          hintmask 11000100
          44 208 rlineto
          hintmask 10010100
          -14 callsubr
          hintmask 11000100
          16 callsubr
        </CharString>
        <CharString name="radical">
          492 -354 2224 hstem
          84 1498 vstem
          173 458 rmoveto
          129 70 394 -882 rlineto
          173 hlineto
          713 2224 rlineto
          -211 hlineto
          -599 -1963 -318 809 rlineto
          -187 hlineto
          -183 -112 rlineto
          endchar
        </CharString>
        <CharString name="rcaron">
          34 callsubr
          44 callsubr
          53 734 -705 733 hintmask 00001100
          296 1285 -87 callsubr
          hintmask 00000000
          29 -1592 -15 callsubr
          92 673 rlineto
          hintmask 10100010
          -12 callsubr
          hintmask 11000010
          44 208 rlineto
          hintmask 10010010
          -14 callsubr
          hintmask 11000010
          16 callsubr
        </CharString>
        <CharString name="rcommaaccent">
          -324 -7 callgsubr
          531 -21 949 207 -13 -20 20 13 hstemhm
          82 733 -722 191 hintmask 11000001
          27 -171 -100 callgsubr
          hintmask 00000000
          -94 70 -15 callsubr
          92 673 rlineto
          hintmask 00101010
          -12 callsubr
          hintmask 00110010
          44 208 rlineto
          hintmask 00100110
          -14 callsubr
          hintmask 00110010
          16 callsubr
        </CharString>
        <CharString name="registered">
          1019 82 129 637 128 340 132 266 126 hstem
          194 142 402 177 333 184 360 -45 callgsubr
          402 -484 rmoveto
          177 369 hlineto
          49 49 0 1 26 hvcurveto
          90 -24 41 -115 42 -92 25 -53 21 -43 33 -42 204 -1 rcurveline
          -60 91 -21 29 -22 40 -45 84 -38 99 -70 52 rrcurveto
          142 43 51 111 146 vvcurveto
          149 -106 125 -253 vhcurveto
          -92 -95 -7 -71 hhcurveto
          -77 hlineto
          177 -461 rmoveto
          325 vlineto
          37 9 29 1 43 1 rrcurveto
          181 5 43 -68 -102 vvcurveto
          -129 -69 -46 -134 -34 -66 1 3 -30 vhcurveto
          endchar
        </CharString>
        <CharString name="ring">
          -387 1253 106 319 108 hstem
          93 18 callsubr
          vstem
          380 1253 -89 callsubr
          endchar
        </CharString>
        <CharString name="ring.cap">
          -387 1467 106 319 108 hstem
          51 18 callsubr
          vstem
          338 1467 -89 callsubr
          endchar
        </CharString>
        <CharString name="s">
          -238 -43 callsubr
          hstem
          170 188 180 194 vstem
          44 43 -100 callsubr
          endchar
        </CharString>
        <CharString name="sacute">
          -238 -43 callsubr
          105 472 45 callgsubr
          95 459 -374 194 hintmask 00101000
          536 1261 -92 callgsubr
          hintmask 11010100
          -409 -1289 -100 callsubr
          endchar
        </CharString>
        <CharString name="scaron">
          -238 -43 callsubr
          129 395 45 callgsubr
          -122 734 -432 194 hintmask 00101000
          479 1285 -87 callsubr
          hintmask 11010100
          -192 -1549 -100 callsubr
          endchar
        </CharString>
        <CharString name="scircumflex">
          -238 -43 callsubr
          83 451 45 callgsubr
          -140 695 -375 194 hintmask 00101000
          295 1239 -88 callgsubr
          hintmask 11010100
          -174 -1273 -100 callsubr
          endchar
        </CharString>
        <CharString name="second">
          -99 1190 592 hstemhm
          275 334 54 334 hintmask 11000000
          275 1190 14 callgsubr
          hintmask 10100000
          259 -592 14 callgsubr
          endchar
        </CharString>
        <CharString name="section">
          84 -186 155 1553 151 hstemhm
          205 208 -168 208 394 206 -166 206 hintmask 00000000
          hintmask 11011000
          131 -65 rmoveto
          -49 44 156 -72 165 hhcurveto
          321 242 135 259 -6 hvcurveto
          -2 72 -36 59 -54 49 rrcurveto
          hintmask 11010100
          85 65 49 88 -2 128 -4 191 -176 121 -166 81 -197 99 -107 49 10 156 rrcurveto
          85 8 113 71 159 hhcurveto
          76 158 -24 -81 63 hvcurveto
          63 151 rlineto
          45 -51 -106 60 -186 hhcurveto
          -321 -188 -138 -191 4 hvcurveto
          2 -120 56 -92 79 -73 rrcurveto
          hintmask 11101000
          -115 -57 -65 -73 3 -116 4 -227 193 -130 188 -78 rrcurveto
          188 -78 69 -70 -70 vvcurveto
          -156 -174 -35 -174 -126 -150 61 55 -37 vhcurveto
          521 451 rmoveto
          -197 99 -107 54 10 156 4 52 30 44 53 31 42 -26 44 -22 44 -20 rrcurveto
          hintmask 11010100
          220 -102 37 -83 -88 vvcurveto
          -66 -23 -49 -39 -35 vhcurveto
          hintmask 11101000
          -38 20 -40 18 -40 17 rrcurveto
          endchar
        </CharString>
        <CharString name="semicolon">
          -584 -480 -21 1309 -21 hstemhm
          164 276 -275 208 hintmask 10010000
          -19 callsubr
          hintmask 01100000
          88 762 -67 callsubr
          endchar
        </CharString>
        <CharString name="seven">
          -14 986 160 -43 43 hstemhm
          102 958 hintmask 00000000
          hintmask 10100000
          279 -254 rmoveto
          178 -66 rlineto
          hintmask 01100000
          603 1423 rlineto
          hintmask 10100000
          -32 43 rlineto
          -892 hlineto
          -34 -162 732 4 rlineto
          endchar
        </CharString>
        <CharString name="six">
          153 -16 138 714 153 hstem
          145 197 569 199 vstem
          145 493 rmoveto
          -273 139 -236 274 359 193 329 292 195 -94 189 -255 -166 -107 -59 -61 -68 vhcurveto
          94 251 231 227 301 109 -44 115 rcurveline
          -493 -137 -364 -427 -514 vvcurveto
          197 -19 rmoveto
          72 8 56 19 85 vhcurveto
          47 43 102 102 199 hhcurveto
          109 89 -75 -185 -179 -84 -275 -223 -193 -69 170 182 hvcurveto
          endchar
        </CharString>
        <CharString name="slash">
          -6 callsubr
        </CharString>
        <CharString name="space">
          -625 endchar
        </CharString>
        <CharString name="sterling">
          258 -20 141 623 131 529 141 hstem
          1074 206 vstem
          68 -20 rmoveto
          82 94 53 69 53 hvcurveto
          -53 152 160 -69 213 hhcurveto
          416 41 221 125 1 hvcurveto
          1 109 -62 101 -79 64 -157 -119 rcurveline
          52 -29 39 -78 -53 vvcurveto
          -123 -67 -77 -211 -146 -123 62 34 -111 vhcurveto
          92 140 19 68 45 271 8 48 rcurveline
          317 hlineto
          17 131 rlineto
          -311 hlineto
          17 93 rlineto
          335 55 148 101 118 hhcurveto
          117 70 -58 -23 10 hvcurveto
          93 140 rlineto
          70 -66 -82 12 -111 hhcurveto
          -348 1 -166 -287 -40 -293 -16 -91 rcurveline
          -181 hlineto
          -18 -131 rlineto
          177 hlineto
          -42 -251 -11 -80 -32 -126 -68 -54 rlinecurve
          -96 1 -128 -90 -11 -70 rrcurveto
          -79 -12 48 -15 40 hhcurveto
          endchar
        </CharString>
        <CharString name="summation">
          483 -170 156 1370 166 -80 80 hstemhm
          227 1078 hintmask 00000000
          hintmask 11010000
          227 -116 rmoveto
          26 -54 rlineto
          1052 156 -772 hlineto
          475 695 -490 675 rlineto
          772 166 -1033 hlineto
          hintmask 10110000
          -30 -80 551 -767 rlineto
          endchar
        </CharString>
        <CharString name="t">
          -369 -16 155 845 156 hstem
          153 203 vstem
          153 163 rmoveto
          -137 83 -42 100 111 156 86 59 47 vhcurveto
          -25 108 rlineto
          -87 callgsubr
          endchar
        </CharString>
        <CharString name="tbar">
          -369 -16 155 482 130 233 156 hstem
          153 203 vstem
          153 163 rmoveto
          -137 83 -42 100 111 156 86 59 47 vhcurveto
          -25 108 rlineto
          -32 -42 -119 -66 -52 hhcurveto
          -49 -7 55 54 39 7 32 10 75 hvcurveto
          29 227 rlineto
          262 hlineto
          16 130 rlineto
          -261 hlineto
          30 233 rlineto
          261 hlineto
          23 156 rlineto
          -262 hlineto
          36 280 rlineto
          -165 hlineto
          -62 -280 rlineto
          -105 hlineto
          -42 -156 rlineto
          116 hlineto
          -29 -233 rlineto
          -122 hlineto
          -16 -130 rlineto
          122 hlineto
          -39 -325 rlineto
          -13 -100 1 -22 -11 vvcurveto
          endchar
        </CharString>
        <CharString name="tcaron">
          -369 -16 155 845 156 105 645 hstemhm
          153 203 335 183 hintmask 11010000
          153 163 rmoveto
          -137 83 -42 100 111 156 86 59 47 vhcurveto
          -25 108 rlineto
          -87 callgsubr
          hintmask 00101000
          603 1082 -74 callsubr
        </CharString>
        <CharString name="thorn">
          53 -495 -21 500 143 -107 -21 1005 152 hstemhm
          868 202 hintmask 00000000
          hintmask 11011000
          83 -16 rmoveto
          -71 -500 rlineto
          190 hlineto
          56 380 rlineto
          hintmask 10111000
          20 135 rlineto
          hintmask 11011000
          -9 48 52 -6 44 -42 callgsubr
          endchar
        </CharString>
        <CharString name="three">
          -6 -327 153 559 97 494 186 hstemhm
          696 231 -209 223 hintmask 00000000
          hintmask 11110000
          59 -164 rmoveto
          -16 -151 rlineto
          -8 61 51 -4 48 hhcurveto
          350 374 195 308 162 -123 144 -231 hvcurveto
          hintmask 11101000
          184 63 184 155 181 vvcurveto
          196 -157 85 -170 -214 -173 -99 -65 -67 vhcurveto
          62 -148 rlineto
          65 89 99 61 134 hhcurveto
          102 72 -50 -84 -203 -245 -80 -180 -37 hvcurveto
          -17 -171 142 34 rlineto
          hintmask 11110000
          202 -2 76 -90 -134 vvcurveto
          -216 -250 -117 -257 -37 -44 4 6 -49 vhcurveto
          endchar
        </CharString>
        <CharString name="three.numr">
          -39 534 129 373 88 378 142 hstemhm
          701 222 -220 207 hintmask 00000000
          hintmask 11101000
          124 1 callsubr
          hintmask 11110000
          -35 callsubr
          hintmask 11101000
          12 callsubr
          endchar
        </CharString>
        <CharString name="threequarters">
          1450 21 -21 166 149 219 129 373 88 378 142 -114 -20 hstemhm
          688 222 -220 207 -192 840 6 callgsubr
          hintmask 0111100100000000
          111 1 callsubr
          hintmask 0111101000000000
          -35 callsubr
          hintmask 0111100100000000
          12 callsubr
          1147 -453 rmoveto
          37 -95 rlineto
          492 hlineto
          -48 -343 rlineto
          -46 callsubr
          hintmask 1000010010000000
          -1176 -1112 rmoveto
          -9 callgsubr
        </CharString>
        <CharString name="threesuperior">
          -1110 endchar
        </CharString>
        <CharString name="tilde">
          -295 1348 -18 callgsubr
          9 783 hintmask 00000000
          hintmask 01010000
          96 1397 -47 callgsubr
          hintmask 10010000
          -2 111 17 -138 163 hhcurveto
          hintmask 00110000
          -63 callgsubr
          hintmask 10010000
          -48 -38 -32 -62 -74 hhcurveto
          hintmask 01010000
          -76 callsubr
          endchar
        </CharString>
        <CharString name="tilde.cap">
          -297 1668 27 callgsubr
          9 783 hintmask 00000000
          hintmask 01100000
          96 1717 -47 callgsubr
          hintmask 10100000
          -73 callsubr
          hintmask 01100000
          -76 callsubr
          endchar
        </CharString>
        <CharString name="trademark">
          1010 1385 145 -87 87 hstemhm
          1786 175 hintmask 00000000
          hintmask 10100000
          903 754 rmoveto
          161 hlineto
          98 532 rlineto
          hintmask 01100000
          26 157 35 -150 138 -547 rlineto
          127 hlineto
          295 624 29 70 -14 -223 -23 -463 rlineto
          174 hlineto
          hintmask 10100000
          25 776 rlineto
          -287 hlineto
          -236 -568 -30 132 -97 436 rlineto
          -273 hlineto
          -715 -777 rmoveto
          171 1 88 631 rlineto
          250 hlineto
          16 145 rlineto
          -666 hlineto
          -22 -145 rlineto
          251 hlineto
          endchar
        </CharString>
        <CharString name="two">
          139 0 134 867 161 hstem
          822 221 vstem
          95 hmoveto
          943 hlineto
          27 173 -719 -39 rlineto
          354 178 343 229 285 vvcurveto
          175 -112 161 -260 -212 -173 -113 -85 -81 vhcurveto
          73 -114 rlineto
          63 76 124 88 137 hhcurveto
          140 67 -63 -133 -211 -370 -273 -390 -191 hvcurveto
          endchar
        </CharString>
        <CharString name="two.numr">
          53 637 126 731 153 hstem
          824 192 vstem
          215 637 rmoveto
          -40 callgsubr
          endchar
        </CharString>
        <CharString name="twosuperior">
          -1110 endchar
        </CharString>
        <CharString name="u">
          -57 callsubr
          39 callgsubr
          hintmask 00000000
          hintmask 10110000
          -64 callgsubr
          hintmask 01110000
          -80 callgsubr
          hintmask 10110000
          -102 callgsubr
          endchar
        </CharString>
        <CharString name="uacute">
          -57 callsubr
          141 472 39 callgsubr
          287 459 hintmask 00010100
          671 1261 -92 callgsubr
          hintmask 00000000
          -486 -1062 -75 callgsubr
          hintmask 10101000
          -80 callgsubr
          hintmask 01101000
          -102 callgsubr
          endchar
        </CharString>
        <CharString name="ubreve">
          -57 callsubr
          180 147 39 callgsubr
          80 140 -99 callsubr
          578 1030 -105 callsubr
          endchar
        </CharString>
        <CharString name="ucircumflex">
          -57 callsubr
          119 451 39 callgsubr
          52 695 hintmask 00010100
          430 1239 -88 callgsubr
          hintmask 00000000
          -251 -1046 -75 callgsubr
          hintmask 10101000
          -80 callgsubr
          hintmask 01101000
          -102 callgsubr
          endchar
        </CharString>
        <CharString name="udieresis">
          -57 callsubr
          268 263 39 callgsubr
          57 26 callsubr
          hintmask 00000000
          hintmask 00010110
          893 1388 rmoveto
          -107 callgsubr
          -420 hmoveto
          -107 callgsubr
          hintmask 00000000
          -371 -1118 -75 callgsubr
          hintmask 10101000
          -80 callgsubr
          hintmask 01101000
          -102 callgsubr
          endchar
        </CharString>
        <CharString name="ugrave">
          -57 callsubr
          141 472 39 callgsubr
          9 441 -99 callsubr
          564 991 -71 callgsubr
        </CharString>
        <CharString name="uhungarumlaut">
          -57 callsubr
          152 470 39 callgsubr
          121 817 -99 callsubr
          840 1002 -51 callsubr
          endchar
        </CharString>
        <CharString name="umacron">
          -57 callsubr
          275 149 39 callgsubr
          142 514 -99 callsubr
          341 1125 -66 callsubr
          endchar
        </CharString>
        <CharString name="underscore">
          225 -338 151 hstem
          -111 1398 vstem
          -91 -187 rmoveto
          -20 -151 rlineto
          1378 hlineto
          20 151 rlineto
          endchar
        </CharString>
        <CharString name="uni015E">
          -66 -464 165 284 154 -128 -21 1405 151 32 callsubr
          -30 171 193 206 hintmask 00000000
          hintmask 11010110
          29 75 rmoveto
          40 -34 134 -48 148 -8 rrcurveto
          1 -34 -1 -40 -30 -30 callsubr
          -57 callgsubr
          hvcurveto
          hintmask 10110110
          63 -9 53 -15 39 vhcurveto
          250 30 177 141 -4 260 -33 callgsubr
          rrcurveto
          hintmask 11011010
          -171 116 -70 69 7 160 rrcurveto
          171 8 153 35 119 hhcurveto
          76 128 -20 -65 63 hvcurveto
          63 151 rlineto
          37 -51 -106 48 -186 hhcurveto
          -271 -199 -150 -259 5 hvcurveto
          4 -222 158 -128 153 -101 rrcurveto
          165 -109 52 -92 -112 vvcurveto
          -175 -159 -59 -159 -126 -150 55 41 -37 vhcurveto
          endchar
        </CharString>
        <CharString name="uni015F">
          -238 -464 165 284 146 -117 -21 1016 147 45 callgsubr
          -58 171 67 194 hintmask 00000000
          hintmask 11010110
          44 43 rmoveto
          31 -27 108 -26 117 -5 rrcurveto
          1 -34 -1 -40 -30 -30 callsubr
          -57 callgsubr
          hvcurveto
          hintmask 10110110
          65 -9 53 -16 40 vhcurveto
          171 28 115 102 172 vvcurveto
          168 -118 94 -103 84 vhcurveto
          hintmask 11011010
          -85 70 -68 52 105 vvcurveto
          100 89 41 104 132 74 -60 -15 11 vhcurveto
          38 183 rlineto
          15 -33 -96 24 -127 hhcurveto
          -203 -177 -108 -205 -162 93 -85 113 -96 hvcurveto
          100 -85 62 -46 -96 vvcurveto
          -112 -95 -30 -95 -130 -96 56 27 -41 vhcurveto
          endchar
        </CharString>
        <CharString name="uni0162">
          12 -464 165 320 36 callsubr
          hstem
          392 171 vstem
          162 -285 rmoveto
          -57 callgsubr
          69 -10 56 -18 40 hvcurveto
          44 -50 callsubr
          -175 -1384 rlineto
          10 hlineto
          2 -36 -1 -49 -34 -30 callsubr
          endchar
        </CharString>
        <CharString name="uni0163">
          -369 -464 165 307 -21 997 156 hstemhm
          153 203 -130 171 hintmask 00000000
          hintmask 11110000
          153 163 rmoveto
          -80 28 -48 44 -26 vhcurveto
          hintmask 11101000
          3 -36 -2 -55 -37 -30 callsubr
          -57 callgsubr
          62 -9 51 -14 39 hvcurveto
          106 15 128 74 42 53 -25 108 rcurveline
          hintmask 11110000
          -87 callgsubr
          endchar
        </CharString>
        <CharString name="uni01C4">
          -84 callsubr
          hintmask 0101000010000000
          619 1538 -89 callgsubr
          endchar
        </CharString>
        <CharString name="uni01C5">
          -83 callgsubr
          hintmask 0101000010000000
          528 1230 -60 callgsubr
        </CharString>
        <CharString name="uni01C6">
          -82 callgsubr
          hintmask 0101000010000000
          580 1226 -60 callgsubr
        </CharString>
        <CharString name="uni01C7">
          450 0 27 callsubr
          hstemhm
          110 789 -91 687 hintmask 11100000
          110 hmoveto
          -59 callgsubr
          hintmask 01010000
          806 -1444 -80 callsubr
          endchar
        </CharString>
        <CharString name="uni01C8">
          447 -514 136 378 167 973 -20 272 263 -125 -20 hstemhm
          110 789 -151 19 callsubr
          hintmask 01001100
          110 hmoveto
          -59 callgsubr
          hintmask 10100010
          806 -1461 -94 callgsubr
          hintmask 00010001
          131 252 -102 callsubr
        </CharString>
        <CharString name="uni01C9">
          53 -514 136 382 1634 -498 -20 272 263 hstemhm
          125 418 -189 19 callsubr
          hintmask 01001000
          125 4 -41 callsubr
          hintmask 10100100
          367 -1569 -94 callgsubr
          hintmask 00010010
          131 252 -102 callsubr
        </CharString>
        <CharString name="uni01CA">
          872 -63 callsubr
          hstemhm
          43 callsubr
          -112 687 hintmask 11100000
          -60 callsubr
          hintmask 01010000
          1228 -1444 -80 callsubr
          endchar
        </CharString>
        <CharString name="uni01CB">
          869 -514 136 399 -51 callgsubr
          272 263 -125 -20 hstemhm
          43 callsubr
          -172 19 callsubr
          hintmask 01001100
          -60 callsubr
          hintmask 10100010
          1228 -1461 -94 callgsubr
          hintmask 00010001
          131 252 -102 callsubr
        </CharString>
        <CharString name="uni01CC">
          663 -514 136 1353 181 -16 -20 272 263 hstemhm
          867 199 -102 19 callsubr
          hintmask 00000000
          hintmask 01001000
          83 4 -101 callgsubr
          hintmask 00101000
          -4 callgsubr
          hintmask 10100100
          1087 -1071 -94 callgsubr
          hintmask 00010010
          131 252 -102 callsubr
        </CharString>
        <CharString name="uni01CE">
          -1110 endchar
        </CharString>
        <CharString name="uni01CF">
          -530 -63 callsubr
          117 386 hstemhm
          100 734 -707 391 hintmask 11001000
          -72 callgsubr
          hintmask 00110000
          23 97 -89 callgsubr
          endchar
        </CharString>
        <CharString name="uni01D0">
          -11 callsubr
          169 395 hstemhm
          105 734 -715 350 hintmask 11001000
          124 hmoveto
          -83 callsubr
          hintmask 00110000
          69 149 -60 callgsubr
        </CharString>
        <CharString name="uni01D1">
          -55 callgsubr
          81 386 -3 callgsubr
          180 734 -129 -82 callsubr
          106 1491 -89 callgsubr
          endchar
        </CharString>
        <CharString name="uni01D2">
          25 -43 callsubr
          133 395 46 callgsubr
          50 734 -240 205 hintmask 11010100
          -90 callsubr
          hintmask 00101000
          76 1158 -60 callgsubr
        </CharString>
        <CharString name="uni01D3">
          -37 callsubr
          117 386 -4 callsubr
          132 734 hintmask 11010000
          -88 callsubr
          hintmask 00101000
          578 1199 -89 callgsubr
          endchar
        </CharString>
        <CharString name="uni01D4">
          -57 callsubr
          169 395 39 callgsubr
          70 734 -99 callsubr
          512 1019 -60 callgsubr
        </CharString>
        <CharString name="uni01F1">
          -84 callsubr
          endchar
        </CharString>
        <CharString name="uni01F2">
          -83 callgsubr
          endchar
        </CharString>
        <CharString name="uni01F3">
          -82 callgsubr
          endchar
        </CharString>
        <CharString name="uni01F4">
          -47 callsubr
          133 -21 22 callgsubr
          483 400 hintmask 11101000
          608 -16 -107 callsubr
          hintmask 00010100
          258 1609 -96 callsubr
          endchar
        </CharString>
        <CharString name="uni0218">
          -66 -7 callgsubr
          494 155 1256 151 32 callsubr
          -35 191 178 206 hintmask 11000100
          280 -171 -100 callgsubr
          hintmask 00111010
          -400 145 -62 callsubr
        </CharString>
        <CharString name="uni0219">
          -238 -7 callgsubr
          494 147 878 147 45 callgsubr
          -63 191 52 194 hintmask 11000100
          229 -171 -100 callgsubr
          hintmask 00111010
          -334 113 -100 callsubr
          endchar
        </CharString>
        <CharString name="uni021A">
          12 -7 callgsubr
          531 36 callsubr
          hstemhm
          129 1066 -808 191 hintmask 11000100
          321 -171 -10 callgsubr
          -89 70 rmoveto
          198 -50 callsubr
          rlineto
          endchar
        </CharString>
        <CharString name="uni021B">
          -369 -7 callgsubr
          494 155 845 156 hstemhm
          153 203 -135 191 hintmask 11000100
          155 -171 -10 callgsubr
          -151 233 rmoveto
          -137 83 -42 100 111 156 86 59 47 vhcurveto
          -25 108 rlineto
          -87 callgsubr
          endchar
        </CharString>
        <CharString name="uni02c9">
          -496 1729 149 hstem
          49 514 vstem
          49 7 callsubr
          endchar
        </CharString>
        <CharString name="uni0394">
          -26 callgsubr
        </CharString>
        <CharString name="uni03A9">
          -69 callsubr
        </CharString>
        <CharString name="uni03BC">
          -75 callsubr
        </CharString>
        <CharString name="uni1E02">
          20 callgsubr
          207 -21 hstemhm
          530 265 128 211 -190 198 hintmask 0000011000000000
          643 1696 -96 callgsubr
          6 callgsubr
          -533 -1696 rmoveto
          92 hlineto
          71 107 -14 77 hhcurveto
          hintmask 0111000100000000
          13 callgsubr
          hintmask 1011000100000000
          15 callsubr
          hintmask 1011000010000000
          30 callsubr
          hintmask 1010100100000000
          5 callgsubr
          hintmask 1011000010000000
          -53 -66 -2 3 -51 hvcurveto
          hintmask 1010100100000000
          -13 callgsubr
        </CharString>
        <CharString name="uni1E03">
          53 -16 143 877 152 33 callsubr
          700 267 -99 202 hintmask 11001000
          -52 callsubr
          hintmask 00110000
          515 1237 -102 callsubr
        </CharString>
        <CharString name="uni1E0A">
          5 callsubr
          207 -21 hstemhm
          632 265 196 205 hintmask 00001100
          745 1696 -96 callgsubr
          hintmask 00000000
          -635 -1696 rmoveto
          -11 callgsubr
          hintmask 01100010
          -84 callgsubr
          hintmask 10100010
          -48 callsubr
          hintmask 10010010
          154 1218 -85 callgsubr
          hintmask 10100010
          -83 -3 -92 12 -61 20 rrcurveto
          endchar
        </CharString>
        <CharString name="uni1E0B">
          51 -56 callsubr
          -15 -20 267 263 11 callsubr
          63 267 hintmask 00000000
          hintmask 10100100
          -29 callsubr
          hintmask 01010100
          -44 callsubr
          hintmask 10100100
          -92 callsubr
          hintmask 00001010
          35 1252 -102 callsubr
        </CharString>
        <CharString name="uni1E1E">
          41 callsubr
          187 -21 hstemhm
          110 983 -517 265 hintmask 00010100
          689 1696 -96 callgsubr
          hintmask 11101000
          -579 -1696 rmoveto
          -2 callgsubr
        </CharString>
        <CharString name="uni1E1F">
          -415 10 callgsubr
          388 153 -5 -21 31 263 4 callsubr
          -544 267 hintmask 00001010
          457 1686 rmoveto
          -107 callgsubr
          hintmask 00000000
          -309 -1686 rmoveto
          -93 callgsubr
          hintmask 11010100
          -86 callsubr
          hintmask 11100100
          -3 callsubr
          hintmask 11010100
          -79 callsubr
        </CharString>
        <CharString name="uni1E20">
          -47 callsubr
          183 149 22 callgsubr
          256 514 hintmask 11101000
          608 -16 -107 callsubr
          hintmask 00010100
          -42 1745 -66 callsubr
          endchar
        </CharString>
        <CharString name="uni1E21">
          -46 callgsubr
          243 149 11 callsubr
          197 514 hintmask 11101000
          171 -304 -106 callgsubr
          hintmask 00010100
          54 1263 -66 callsubr
          endchar
        </CharString>
        <CharString name="uni1E40">
          32 callgsubr
          207 -21 hstemhm
          48 1574 -711 265 hintmask 00001010
          1024 1696 -96 callgsubr
          hintmask 00000000
          -976 -1696 rmoveto
          200 hlineto
          238 1033 rlineto
          hintmask 01010100
          17 callgsubr
          hintmask 10100100
          -16 callsubr
        </CharString>
        <CharString name="uni1E41">
          659 28 callgsubr
          268 263 hstemhm
          857 267 319 199 hintmask 00000000
          hintmask 10001000
          -72 callsubr
          hintmask 01001000
          20 214 -6 callgsubr
          hintmask 00110000
          734 -74 callgsubr
          endchar
        </CharString>
        <CharString name="uni1E44">
          17 callsubr
          207 -21 hstemhm
          43 callsubr
          -596 265 hintmask 11010000
          -60 callsubr
          hintmask 00101000
          556 166 -44 callgsubr
        </CharString>
        <CharString name="uni1E45">
          84 28 callgsubr
          272 263 hstemhm
          554 267 46 199 hintmask 00000000
          hintmask 10001000
          83 4 -101 callgsubr
          hintmask 01001000
          -4 callgsubr
          hintmask 00110000
          431 252 -102 callsubr
        </CharString>
        <CharString name="uni1E56">
          31 callgsubr
          207 -21 hstemhm
          661 265 44 201 hintmask 00001100
          774 1696 -96 callgsubr
          hintmask 00000000
          -664 -1696 rmoveto
          7 callgsubr
          67 530 -15 callgsubr
          124 -289 hhcurveto
          hintmask 11100010
          31 callsubr
          hintmask 11010010
          86 687 rlineto
          12 58 90 -13 callsubr
          rrcurveto
          hintmask 11100010
          29 callsubr
        </CharString>
        <CharString name="uni1E57">
          22 callsubr
          268 263 hstemhm
          612 267 -13 202 hintmask 00000000
          hintmask 10110001
          278 -1 rmoveto
          hintmask 11010001
          -9 48 50 -6 44 -34 callsubr
          -158 -131 -103 -100 -76 hvcurveto
          hintmask 11001001
          12 callgsubr
          hintmask 11010001
          -50 callgsubr
          hvcurveto
          hintmask 11001001
          -55 -54 9 15 -44 hvcurveto
          hintmask 00000110
          429 1237 -102 callsubr
        </CharString>
        <CharString name="uni1E60">
          0 callsubr
          171 -21 32 callsubr
          187 265 -118 206 hintmask 00101000
          681 1696 -96 callgsubr
          hintmask 11010100
          -652 -1621 -62 callsubr
        </CharString>
        <CharString name="uni1E61">
          -238 -43 callsubr
          232 263 45 callgsubr
          80 267 -167 194 hintmask 11010100
          44 43 -100 callsubr
          hintmask 00101000
          472 1174 -102 callsubr
        </CharString>
        <CharString name="uni1E6A">
          12 21 36 callsubr
          188 -21 hstemhm
          129 1066 -596 265 hintmask 00101000
          712 1696 -96 callgsubr
          hintmask 11010000
          -331 -1696 rmoveto
          198 -50 callsubr
          rlineto
          endchar
        </CharString>
        <CharString name="uni1E6B">
          -369 -16 155 845 156 353 263 hstemhm
          153 203 -31 267 hintmask 11010000
          153 163 rmoveto
          -137 83 -42 100 111 156 86 59 47 vhcurveto
          -25 108 rlineto
          -87 callgsubr
          hintmask 00101000
          287 1330 -102 callsubr
        </CharString>
        <CharString name="uni1E8E">
          42 callgsubr
          207 -21 hstemhm
          83 1154 -662 265 hintmask 11010000
          -81 callsubr
          hintmask 00101000
          232 1106 -44 callgsubr
        </CharString>
        <CharString name="uni1E8F">
          -29 callgsubr
          272 263 hstemhm
          465 267 77 191 hintmask 11100100
          -103 callsubr
          hintmask 00011000
          356 1033 -102 callsubr
        </CharString>
        <CharString name="uni1E9E">
          385 -23 165 -121 -21 767 121 488 162 hstemhm
          1185 214 hintmask 00000000
          hintmask 01111000
          102 hmoveto
          208 hlineto
          121 868 rlineto
          342 41 226 166 219 hhcurveto
          68 79 -20 -32 54 hvcurveto
          -362 -495 -1 -62 rlineto
          325 -1 105 -115 -177 vvcurveto
          hintmask 10111000
          -245 -184 -87 -129 -106 -118 42 45 -41 vhcurveto
          -106 -166 rlineto
          -47 71 92 -39 214 hhcurveto
          335 186 246 276 244 -216 145 -168 hvcurveto
          338 452 17 106 rlineto
          -96 -85 92 -255 hhcurveto
          -420 -246 -298 -487 -61 hvcurveto
          endchar
        </CharString>
        <CharString name="uni20A6">
          757 21 -21 466 147 293 147 469 -20 hstem
          49 1858 vstem
          266 hmoveto
          192 hlineto
          65 466 rlineto
          515 hlineto
          255 -466 rlineto
          174 hlineto
          65 466 rlineto
          280 hlineto
          20 147 rlineto
          -279 hlineto
          41 293 rlineto
          293 hlineto
          20 147 rlineto
          -293 hlineto
          66 469 rlineto
          -191 hlineto
          -66 -469 rlineto
          -511 hlineto
          -254 469 rlineto
          -179 hlineto
          -66 -469 rlineto
          -278 hlineto
          -20 -147 rlineto
          278 hlineto
          -41 -293 rlineto
          -283 hlineto
          -20 -147 rlineto
          282 hlineto
          273 587 rmoveto
          23 186 94 -186 rlineto
          430 -440 rmoveto
          -159 293 rlineto
          410 hlineto
          -41 -293 rlineto
          -817 hmoveto
          41 293 rlineto
          213 hlineto
          160 -293 rlineto
          267 -147 rmoveto
          117 hlineto
          -25 -203 rlineto
          endchar
        </CharString>
        <CharString name="uni20AA">
          730 0 154 1012 -20 221 155 hstem
          1124 195 vstem
          568 326 rmoveto
          -235 -26 156 -91 229 hhcurveto
          577 hlineto
          213 1522 rlineto
          -180 hlineto
          -55 -478 -90 -412 -54 -478 rrcurveto
          -272 hlineto
          -239 -89 36 146 17 hvcurveto
          133 830 rlineto
          -192 hlineto
          -539 -1166 rmoveto
          182 hlineto
          197 1367 rlineto
          366 hlineto
          191 47 -77 -181 -21 hvcurveto
          -122 -742 rlineto
          191 hlineto
          122 735 rlineto
          206 24 -5 214 -305 hhcurveto
          -654 hlineto
          endchar
        </CharString>
        <CharString name="uni20B1">
          363 21 -21 515 161 153 107 193 107 158 152 -16 -20 hstemhm
          138 1387 -434 207 hintmask 00000000
          hintmask 11111010
          211 hmoveto
          204 hlineto
          67 525 rlineto
          -5 28 78 -5 94 hhcurveto
          250 199 116 198 99 hvcurveto
          249 hlineto
          15 107 rlineto
          hintmask 11111001
          -223 hlineto
          17 59 9 65 1 69 rrcurveto
          212 hlineto
          15 107 rlineto
          -234 hlineto
          210 -34 -159 100 -260 hhcurveto
          hintmask 11110110
          -110 -108 -16 -98 hhcurveto
          -117 hlineto
          -37 -294 rlineto
          -184 hlineto
          -15 -107 rlineto
          185 hlineto
          -24 -193 rlineto
          -177 hlineto
          -15 -107 rlineto
          178 hlineto
          255 407 rmoveto
          hintmask 11111001
          18 138 rlineto
          11 56 108 9 52 hhcurveto
          156 88 -55 -103 30 hvcurveto
          -546 -300 rmoveto
          25 193 rlineto
          533 hlineto
          -2 -72 -9 -65 -17 -56 rrcurveto
          -561 -246 rmoveto
          18 139 rlineto
          495 hlineto
          -65 -98 -106 -53 -156 -2 -53 -1 -98 7 -35 8 rrcurveto
          endchar
        </CharString>
        <CharString name="uni20B2">
          381 7 -21 584 164 647 162 hstem
          189 208 vstem
          647 -14 rmoveto
          -37 -244 rlineto
          178 hlineto
          38 252 105 15 93 31 72 21 rlinecurve
          54 16 44 12 38 4 83 641 rcurveline
          -433 hlineto
          -20 -164 rlineto
          232 hlineto
          -45 -354 rlineto
          -49 -108 -124 -24 -88 hhcurveto
          -248 -80 257 247 -4 hvcurveto
          305 -5 142 429 391 hhcurveto
          177 119 -52 -36 47 hvcurveto
          62 185 -40 12 -53 18 -88 27 -135 8 rlinecurve
          31 220 rlineto
          -178 hlineto
          -31 -223 -374 -50 -281 -356 8 -508 rlinecurve
          5 -295 129 -317 324 -28 rrcurveto
          endchar
        </CharString>
        <CharString name="uni20B5">
          283 -15 150 -129 -21 25 -21 1405 152 hstemhm
          145 217 hintmask 00000000
          hintmask 00111000
          605 -11 rmoveto
          -48 -342 rlineto
          146 hlineto
          hintmask 01011000
          48 338 199 9 159 46 73 72 rlinecurve
          -57 129 rlineto
          hintmask 10011000
          -89 -56 -98 -42 -166 -8 178 1259 rcurveline
          154 -3 99 -35 26 -27 64 163 rcurveline
          -70 22 -102 31 -150 1 38 269 rcurveline
          -146 hlineto
          -39 -279 rlineto
          -399 -63 -280 -338 -485 vvcurveto
          hintmask 00111000
          -294 129 -322 331 -45 vhcurveto
          22 155 rmoveto
          -201 48 -69 218 5 271 7 395 160 249 273 57 rrcurveto
          endchar
        </CharString>
        <CharString name="uni20B9">
          284 21 -21 615 167 231 159 198 160 hstemhm
          147 1206 -402 208 hintmask 00000000
          hintmask 11111000
          147 624 rmoveto
          -3 25 82 -6 106 hhcurveto
          74 92 3 9 99 hvcurveto
          -128 122 64 -499 85 hhcurveto
          241 hlineto
          -139 184 -33 352 -130 136 127 51 135 96 46 194 rrcurveto
          185 hlineto
          22 159 rlineto
          hintmask 11110100
          -191 hlineto
          -2 81 -22 67 -28 50 rrcurveto
          224 hlineto
          22 160 rlineto
          -1127 hlineto
          -22 -160 rlineto
          665 hlineto
          64 -40 18 -73 -56 vvcurveto
          -10 0 -9 -1 -10 vhcurveto
          -726 hlineto
          -22 -159 rlineto
          716 hlineto
          -152 -62 -141 -79 -182 hhcurveto
          -172 -151 0 5 -43 hvcurveto
          endchar
        </CharString>
        <CharString name="uni20BA">
          371 0 179 1358 -20 hstem
          149 1257 vstem
          338 hmoveto
          211 hlineto
          428 363 256 408 58 hvcurveto
          8 55 rlineto
          -212 hlineto
          -385 -54 -279 -155 -287 hhcurveto
          -1 vlineto
          -1 2 63 448 492 201 23 168 -491 -201 30 216 515 212 24 178 -514 -212 49 347 rlineto
          -211 hlineto
          -61 -439 -276 -114 -24 -178 275 113 -30 -214 -265 -108 -23 -168 264 108 rlineto
          endchar
        </CharString>
        <CharString name="uni2113">
          104 -16 161 1358 177 hstem
          293 170 441 168 vstem
          86 131 rmoveto
          126 -108 52 39 50 42 49 43 rlinecurve
          -106 53 82 -57 102 hhcurveto
          252 125 209 216 43 hvcurveto
          -162 25 rlineto
          -189 -17 -111 -100 -109 hhcurveto
          -50 -48 35 91 -30 hvcurveto
          345 350 234 434 398 vvcurveto
          133 -66 94 -114 -341 -258 -621 -547 -69 5 -62 9 -57 vhcurveto
          -68 -65 -73 -64 -80 -64 rrcurveto
          377 353 rmoveto
          30 vlineto
          420 188 569 190 37 26 -40 -44 -281 -145 -326 -296 -328 vhcurveto
          endchar
        </CharString>
        <CharString name="uni2215">
          -6 callsubr
        </CharString>
        <CharString name="uni2219">
          -424 645 -21 hstem
          208 276 vstem
          208 736 -67 callsubr
          endchar
        </CharString>
        <CharString name="uogonek">
          72 47 callsubr
          267 171 -150 -21 41 -51 callgsubr
          39 callgsubr
          201 194 hintmask 00000000
          hintmask 11001110
          -64 callgsubr
          hintmask 10101110
          -21 -216 -3 -2 rlineto
          -65 callgsubr
          hvcurveto
          hintmask 10011110
          9 callsubr
          vhcurveto
          29 hlineto
          151 1140 rlineto
          -195 hlineto
          -97 -728 rlineto
          hintmask 11001110
          -102 callgsubr
          endchar
        </CharString>
        <CharString name="uring">
          -57 callsubr
          133 106 319 108 39 callgsubr
          112 18 callsubr
          hintmask 00011011
          700 1253 -89 callsubr
          hintmask 00000000
          -603 -1089 -75 callgsubr
          hintmask 10100100
          -80 callgsubr
          hintmask 01100100
          -102 callgsubr
          endchar
        </CharString>
        <CharString name="utilde">
          -57 callsubr
          228 -18 callgsubr
          102 199 -7 783 hintmask 00000000
          hintmask 10100010
          -64 callgsubr
          hintmask 01100010
          -80 callgsubr
          hintmask 10100010
          -102 callgsubr
          hintmask 00000000
          279 1127 -61 callgsubr
        </CharString>
        <CharString name="v">
          -103 5 -21 1156 -20 hstem
          808 185 vstem
          270 -16 rmoveto
          175 12 161 188 173 208 187 302 27 311 rlinecurve
          4 45 0 46 -3 44 rrcurveto
          -186 hlineto
          5 -46 -26 -174 -16 -66 -56 -232 -65 -105 -109 -175 -144 -188 rcurveline
          -10 205 -67 781 rlineto
          -218 hlineto
          110 -781 rlineto
          endchar
        </CharString>
        <CharString name="w">
          9 callgsubr
          hstem
          1435 188 vstem
          280 -16 -101 callsubr
          endchar
        </CharString>
        <CharString name="wacute">
          9 callgsubr
          141 472 hstemhm
          857 459 119 188 hintmask 00110000
          940 1261 -92 callgsubr
          hintmask 11001000
          -577 -1348 -101 callsubr
          endchar
        </CharString>
        <CharString name="wcircumflex">
          9 callgsubr
          119 451 hstemhm
          622 695 118 188 hintmask 00110000
          699 1239 -88 callgsubr
          hintmask 11001000
          -342 -1332 -101 callsubr
          endchar
        </CharString>
        <CharString name="wdieresis">
          9 callgsubr
          268 263 hstemhm
          627 26 callsubr
          121 188 hintmask 00000000
          hintmask 00111000
          1162 1388 rmoveto
          -107 callgsubr
          -420 hmoveto
          -107 callgsubr
          hintmask 11000100
          -462 -1404 -101 callsubr
          endchar
        </CharString>
        <CharString name="wgrave">
          9 callgsubr
          141 472 hstemhm
          579 441 415 188 hintmask 11001000
          280 -16 -101 callsubr
          hintmask 00110000
          713 902 -71 callgsubr
        </CharString>
        <CharString name="won">
          834 11 -21 542 132 223 133 510 -20 hstem
          45 1933 vstem
          440 -10 rmoveto
          211 hlineto
          208 542 rlineto
          220 hlineto
          60 -542 rlineto
          211 hlineto
          221 542 rlineto
          332 hlineto
          17 132 rlineto
          -295 hlineto
          91 223 rlineto
          233 hlineto
          17 133 rlineto
          -196 hlineto
          208 510 rlineto
          -207 hlineto
          -194 -510 rlineto
          -369 hlineto
          -53 510 rlineto
          -196 hlineto
          25 -221 -113 -289 rlineto
          -393 hlineto
          -64 510 rlineto
          -204 hlineto
          76 -510 rlineto
          -177 hlineto
          -17 -133 rlineto
          214 hlineto
          33 -223 rlineto
          -277 hlineto
          -17 -132 rlineto
          314 hlineto
          887 132 rmoveto
          -24 223 rlineto
          305 hlineto
          -85 -223 rlineto
          -533 hmoveto
          67 174 16 49 rlineto
          49 hlineto
          4 -49 19 -174 rlineto
          -541 hmoveto
          -28 223 rlineto
          324 hlineto
          -87 -223 rlineto
          552 -440 rmoveto
          -15 217 -10 91 rlineto
          133 hlineto
          -35 -92 rlineto
          -775 -216 rmoveto
          -31 217 -11 91 rlineto
          140 hlineto
          -36 -92 rlineto
          endchar
        </CharString>
        <CharString name="x">
          -157 1140 -20 hstem
          -54 1035 vstem
          -54 4 rmoveto
          209 hlineto
          282 429 168 -429 rlineto
          229 hlineto
          -275 564 422 572 rlineto
          -212 hlineto
          -274 -411 -143 411 rlineto
          -234 hlineto
          254 -550 rlineto
          endchar
        </CharString>
        <CharString name="y">
          -29 callgsubr
          hstem
          809 191 vstem
          -103 callsubr
          endchar
        </CharString>
        <CharString name="yacute">
          -29 callgsubr
          141 472 hstemhm
          480 459 -130 191 hintmask 11100100
          -103 callsubr
          hintmask 00011000
          339 902 -34 callgsubr
        </CharString>
        <CharString name="ycircumflex">
          -29 callgsubr
          119 451 hstemhm
          245 695 -131 191 hintmask 11100100
          -103 callsubr
          hintmask 00011000
          98 880 -26 callsubr
        </CharString>
        <CharString name="ydieresis">
          -29 callgsubr
          hstemhm
          809 191 vstemhm
          -103 callsubr
          561 1029 -31 callgsubr
        </CharString>
</ttFont>
